<svg width="110" height="110" viewBox="0 0 110 110" fill="none" xmlns="http://www.w3.org/2000/svg">
<path d="M30.0281 64.7183C30.0281 65.8732 29.0738 66.8169 27.8981 66.8169H21.9646C20.789 66.8169 19.8347 65.8732 19.8347 64.7183V60.8169C19.8347 59.662 20.789 58.7183 21.9646 58.7183H27.8981C29.0738 58.7183 30.0281 59.662 30.0281 60.8169V64.7183ZM19.8347 45.2676C19.8347 44.1127 20.789 43.169 21.9646 43.169H27.8981C29.0738 43.169 30.0281 44.1127 30.0281 45.2676V48.0845C30.0281 49.2394 29.0738 50.1831 27.8981 50.1831H21.9646C20.789 50.1831 19.8347 49.2394 19.8347 48.0845V45.2676ZM36.1829 48.3239V43.8169C36.1829 40.6056 33.555 38 30.2909 38H19.558C16.3077 38 13.666 40.6056 13.666 43.8169V48.3239C13.666 50.6901 15.0906 52.7042 17.1238 53.6197V54.4507C15.0768 55.3662 13.666 57.3944 13.666 59.7465V66.1831C13.666 69.3944 16.2939 72 19.558 72H30.2909C33.5412 72 36.1829 69.3944 36.1829 66.1831V59.7465C36.1829 57.3944 34.7583 55.3662 32.7252 54.4507V53.6197C34.7583 52.7042 36.1829 50.6761 36.1829 48.3239ZM64.8961 69.5211H73.4022V66.7746H67.7868V64.662H72.2957V61.9718H67.7868V59.8592H73.4022V57.1127H64.8961V69.5211ZM82.1988 46.7887H79.2528V41.8169H76.3067V54.2113H79.2528V49.5211H82.1988V54.2113H85.1448V41.8169H82.1988V46.7887ZM76.3482 69.5211H84.8543V66.7746H79.2528V64.662H83.7617V61.9718H79.2528V59.8592H84.8681V57.1127H76.3482V69.5211ZM92.6135 62.5493H90.4144V59.7465H92.6135C93.3051 59.7465 93.8307 59.9718 93.8307 61.0563C93.8307 62.0845 93.4157 62.5493 92.6135 62.5493ZM92.9593 57.1127H87.5237V69.507H90.4144V65.1127H92.9593C94.3424 65.1127 96.666 64.3099 96.666 61.1127C96.666 57.6901 94.4116 57.1127 92.9593 57.1127ZM69.0593 49.4789H70.7882C70.7882 51.3099 70.1519 51.7606 68.9348 51.7606C67.607 51.7606 67.1368 51.0141 67.1368 49.4789V45.7606C67.1368 44.7324 67.8836 44.0986 68.9348 44.0986C70.1519 44.0986 70.6084 44.8451 70.6084 45.7606H73.6235C73.6235 43.6479 72.1713 41.5352 68.9348 41.5352C65.643 41.5352 64.1908 43.1408 64.1908 45.7606V49.4789C64.1908 51.5915 64.8823 54.338 68.9348 54.338C72.8075 54.338 73.6789 52 73.6789 49.5915V47.1972H69.0455L69.0593 49.4789ZM48.3542 62.0282C46.9711 61.8028 46.6254 61.169 46.6254 60.7746C46.6254 59.9718 47.2063 59.5775 48.1883 59.5775C49.2947 59.5775 49.5714 60.2676 49.5714 60.662H52.3514C52.3514 59.2394 51.3694 56.831 48.1883 56.831C44.6614 56.831 43.7347 59.1127 43.7347 60.831C43.7347 62.831 45.3529 64.0845 47.7318 64.4366C48.5479 64.5493 49.6958 64.7746 49.6958 65.8028C49.6958 66.6056 49.2394 67.1127 48.1883 67.1127C47.4967 67.1127 46.6254 67 46.6254 65.4507H43.7208C43.7208 67 44.1219 69.6761 48.1744 69.6761C52.1716 69.6761 52.628 66.8732 52.628 65.7324C52.628 63.3521 51.0098 62.493 48.3542 62.0282ZM52.3929 51.4225H46.7775V49.3099H51.2864V46.6197H46.7775V44.507H52.3929V41.7606H43.8868V54.1549H52.3929V51.4225ZM58.0083 57.1127H55.1176V69.507H62.2406V66.6479H58.0221V57.1127H58.0083ZM90.4144 54.2113H93.4296V44.6761H96.0851V41.8169H87.6897V44.6761H90.4144V54.2113ZM57.1369 51.5352H55.1176V54.2254H62.1161V51.5352H60.0276V44.507H62.047V41.8169H55.0485V44.507H57.1369V51.5352Z" fill="white"/>
</svg>
