<svg width="110" height="110" viewBox="0 0 110 110" fill="none" xmlns="http://www.w3.org/2000/svg">
<path d="M74.3191 36.3341C73.3852 33.951 71.9699 31.7076 69.9662 30.115C68.2984 28.7886 66.1886 27.9528 64.0696 27.9507C63.6469 27.9507 63.2225 27.9848 62.8016 28.0526C59.7525 28.5545 57.5977 30.7508 55.6542 32.9717C55.4316 33.2263 55.2146 33.483 55.0012 33.7435C54.786 33.4833 54.5691 33.2266 54.3465 32.9717C52.403 30.7508 50.2463 28.5545 47.199 28.0526C46.7782 27.9848 46.3537 27.9507 45.9293 27.9507C43.8121 27.9525 41.7026 28.7883 40.0327 30.115C38.0287 31.7076 36.6154 33.951 35.6797 36.3341C34.0344 40.5285 33.5646 44.8645 34.3702 49.293C34.6607 50.9025 35.1456 52.5612 36.2289 53.8253C40.6913 59.0331 47.2162 52.929 49.9485 49.0799C51.8937 46.3382 53.3713 43.3155 54.9997 40.3853C56.6299 43.3155 58.1075 46.3385 60.0528 49.0799C62.7829 52.9293 69.3097 59.0331 73.7702 53.8253C74.8533 52.5612 75.3382 50.9025 75.6307 49.293C76.4346 44.8645 75.9648 40.5285 74.3194 36.3341H74.3191ZM48.4596 43.7684C47.2616 45.7629 46.1596 47.9969 44.503 49.6555C42.9899 51.1746 40.4876 52.2633 39.1159 49.9594C38.0008 48.0858 38.0459 45.644 38.2122 43.5458C38.4724 40.2418 39.431 36.8946 41.5556 34.3512C42.331 33.4246 43.2649 32.6095 44.369 32.1151C45.471 31.6228 46.7541 31.4716 47.8994 31.8546C49.109 32.2583 50.0581 33.1982 50.8806 34.1715C51.5713 34.9884 52.2035 35.8432 52.7921 36.7227C51.2449 39.002 49.8788 41.4079 48.4599 43.7681L48.4596 43.7684ZM70.8833 49.9594C69.5133 52.2633 67.0114 51.1746 65.4962 49.6555C63.8396 47.9969 62.7394 45.7629 61.5413 43.7684C60.1224 41.4079 58.7545 39.0023 57.2091 36.7209C57.7978 35.8418 58.4279 34.9887 59.1185 34.1718C59.9431 33.1982 60.8904 32.2586 62.0997 31.8549C63.245 31.4719 64.5281 31.6228 65.6319 32.1154C66.7339 32.6098 67.6697 33.4249 68.4433 34.3515C70.5697 36.8949 71.5265 40.2421 71.7888 43.5461C71.953 45.6443 72.0001 48.0858 70.883 49.9596L70.8833 49.9594Z" fill="white"/>
<path d="M74.3191 36.3341C73.3852 33.951 71.9699 31.7076 69.9662 30.115C68.2984 28.7886 66.1886 27.9528 64.0696 27.9507C63.6469 27.9507 63.2225 27.9848 62.8016 28.0526C59.7525 28.5545 57.5977 30.7508 55.6542 32.9717C55.4316 33.2263 55.2146 33.483 55.0012 33.7435C54.786 33.4833 54.5691 33.2266 54.3465 32.9717C52.403 30.7508 50.2463 28.5545 47.199 28.0526C46.7782 27.9848 46.3537 27.9507 45.9293 27.9507C43.8121 27.9525 41.7026 28.7883 40.0327 30.115C38.0287 31.7076 36.6154 33.951 35.6797 36.3341C34.0344 40.5285 33.5646 44.8645 34.3702 49.293C34.6607 50.9025 35.1456 52.5612 36.2289 53.8253C40.6913 59.0331 47.2162 52.929 49.9485 49.0799C51.8937 46.3382 53.3713 43.3155 54.9997 40.3853C56.6299 43.3155 58.1075 46.3385 60.0528 49.0799C62.7829 52.9293 69.3097 59.0331 73.7702 53.8253C74.8533 52.5612 75.3382 50.9025 75.6307 49.293C76.4346 44.8645 75.9648 40.5285 74.3194 36.3341H74.3191ZM48.4596 43.7684C47.2616 45.7629 46.1596 47.9969 44.503 49.6555C42.9899 51.1746 40.4876 52.2633 39.1159 49.9594C38.0008 48.0858 38.0459 45.644 38.2122 43.5458C38.4724 40.2418 39.431 36.8946 41.5556 34.3512C42.331 33.4246 43.2649 32.6095 44.369 32.1151C45.471 31.6228 46.7541 31.4716 47.8994 31.8546C49.109 32.2583 50.0581 33.1982 50.8806 34.1715C51.5713 34.9884 52.2035 35.8432 52.7921 36.7227C51.2449 39.002 49.8788 41.4079 48.4599 43.7681L48.4596 43.7684ZM70.8833 49.9594C69.5133 52.2633 67.0114 51.1746 65.4962 49.6555C63.8396 47.9969 62.7394 45.7629 61.5413 43.7684C60.1224 41.4079 58.7545 39.0023 57.2091 36.7209C57.7978 35.8418 58.4279 34.9887 59.1185 34.1718C59.9431 33.1982 60.8904 32.2586 62.0997 31.8549C63.245 31.4719 64.5281 31.6228 65.6319 32.1154C66.7339 32.6098 67.6697 33.4249 68.4433 34.3515C70.5697 36.8949 71.5265 40.2421 71.7888 43.5461C71.953 45.6443 72.0001 48.0858 70.883 49.9596L70.8833 49.9594Z" fill="white"/>
<path d="M43.7124 62.8967V82.0499H40.4923L40.5468 67.7035L34.7172 77.5324H32.3279L26.4983 67.7035L26.5528 82.0499H23.333V62.8967H26.6844L33.5227 74.6849L40.3607 62.8967H43.7124Z" fill="white"/>
<path d="M59.4605 75.4213H49.026C49.4143 78.0365 51.3564 79.4868 54.0492 79.4868C55.4731 79.4868 56.7749 79.0736 58.055 78.2434L59.489 80.0828C58.1096 81.0283 55.8874 82.05 53.8938 82.05C49.1556 82.05 45.8154 79.0985 45.8154 74.5932C45.8154 70.0879 48.7154 67.1621 52.884 67.1621C57.0526 67.1621 59.5382 69.8288 59.5382 74.1269C59.5382 74.5152 59.5124 74.9815 59.4605 75.4216V75.4213ZM49.0518 73.324H56.5606C56.4829 71.0974 55.1882 69.6729 52.8063 69.6729C50.8385 69.6729 49.4143 71.0971 49.0521 73.324H49.0518Z" fill="white"/>
<path d="M63.8411 77.559V70.2989H61.0078V67.7694H63.8411V63.7725H66.8259V67.7694H70.9245V70.2989H66.8007L66.8259 77.3058C66.8259 78.672 67.5076 79.6418 68.9496 79.6418C69.904 79.6922 70.2635 79.6323 70.979 79.554V81.7184C69.9674 82.1229 69.3847 82.0432 68.449 82.0432C65.4894 82.0432 63.8159 80.2651 63.8411 77.5587V77.559Z" fill="white"/>
<path d="M72.5771 74.7649C72.5771 70.4644 75.2332 67.5049 78.9264 67.5049C80.9247 67.5049 82.6195 68.4406 83.6821 69.9837V67.884H86.6669V81.6702H83.7073V79.5456C82.6195 81.0884 80.8236 82.0496 78.8505 82.0496C75.1318 82.0496 72.5771 79.09 72.5771 74.7643V74.7649ZM83.6821 74.7649C83.6821 72.0075 82.038 70.1102 79.6851 70.1102C77.3323 70.1102 75.6885 72.0075 75.6885 74.7649C75.6885 77.5224 77.3074 79.4448 79.6851 79.4448C82.0629 79.4448 83.6821 77.5475 83.6821 74.7649Z" fill="white"/>
</svg>
