<svg width="196" height="35" viewBox="0 0 196 35" fill="none" xmlns="http://www.w3.org/2000/svg">
<g id="Text input container" clip-path="url(#clip0_1650_448)">
<path id="Vector" d="M1.59277 1.58842H33.3385V33.3611H1.59277V1.58842ZM2.0388 2.03483V32.9131H32.8909V26.7826H16.0137V26.3362H32.8925V2.03483H11.7382V11.3585H11.2922V2.03483H2.0388Z" fill="white"/>
<g id="Text input container_2">
<mask id="mask0_1650_448" style="mask-type:luminance" maskUnits="userSpaceOnUse" x="0" y="0" width="36" height="35">
<g id="Text input">
<path id="Vector_2" d="M0 0H35.0447V34.95H0V0Z" fill="white"/>
<path id="Vector_3" d="M1.59277 1.58842H33.3385V33.3611H1.59277V1.58842ZM2.0388 2.03483V32.9131H32.8909V26.7826H16.0137V26.3362H32.8925V2.03483H11.7382V11.3585H11.2922V2.03483H2.0388Z" fill="white"/>
</g>
</mask>
<g mask="url(#mask0_1650_448)">
<path id="Vector_4" d="M1.59294 1.58864V0H0V1.58864H1.59294ZM33.3387 1.58864H34.9316V0H33.3387V1.58864ZM33.3387 33.3614V34.95H34.9316V33.3614H33.3387ZM1.59294 33.3614H0V34.95H1.59294V33.3614ZM2.03897 2.03504V0.446407H0.446024V2.03504H2.03897ZM2.03897 32.9134H0.446024V34.502H2.03897V32.9134ZM32.8911 32.9134V34.502H34.484V32.9134H32.8911ZM32.8911 26.7828H34.484V25.1942H32.8911V26.7828ZM16.0123 26.7828H14.4193V28.3715H16.0123V26.7828ZM16.0123 26.3364V24.7478H14.4193V26.3364H16.0123ZM32.8911 26.3364V27.925H34.484V26.3364H32.8911ZM32.8911 2.03663H34.484V0.447995H32.8911V2.03663ZM11.7384 2.03663V0.447995H10.1454V2.03663H11.7384ZM11.7384 11.3603V12.949H13.3313V11.3603H11.7384ZM11.2924 11.3603H9.69942V12.949H11.2924V11.3603ZM11.2924 2.03663H12.8853V0.447995H11.2924V2.03663ZM1.59294 3.17727H1.65507H1.71719H1.77932H1.84144H1.90357H1.96569H2.02781H2.08994H2.15206H2.21419H2.27631H2.33844H2.40056H2.46269H2.52481H2.58694H2.64906H2.71119H2.77331H2.83544H2.89756H2.95969H3.02181H3.08394H3.14606H3.20818H3.27031H3.33243H3.39456H3.45668H3.51881H3.58093H3.64306H3.70518H3.76731H3.82943H3.89156H3.95368H4.01581H4.07793H4.14006H4.20218H4.26431H4.32643H4.38855H4.45068H4.5128H4.57493H4.63705H4.69918H4.7613H4.82343H4.88555H4.94768H5.0098H5.07193H5.13405H5.19618H5.2583H5.32043H5.38255H5.44467H5.5068H5.56892H5.63105H5.69317H5.7553H5.81742H5.87955H5.94167H6.0038H6.06592H6.12805H6.19017H6.2523H6.31442H6.37655H6.43867H6.50079H6.56292H6.62504H6.68717H6.74929H6.81142H6.87354H6.93567H6.99779H7.05992H7.12204H7.18417H7.24629H7.30842H7.37054H7.43267H7.49479H7.55692H7.61904H7.68117H7.74329H7.80541H7.86754H7.92966H7.99179H8.05391H8.11604H8.17816H8.24029H8.30241H8.36454H8.42666H8.48879H8.55091H8.61304H8.67516H8.73729H8.79941H8.86154H8.92366H8.98578H9.04791H9.11003H9.17216H9.23428H9.29641H9.35853H9.42066H9.48278H9.54491H9.60703H9.66916H9.73128H9.79341H9.85553H9.91765H9.97978H10.0419H10.104H10.1662H10.2283H10.2904H10.3525H10.4147H10.4768H10.5389H10.601H10.6632H10.7253H10.7874H10.8495H10.9117H10.9738H11.0359H11.098H11.1601H11.2223H11.2844H11.3465H11.4086H11.4708H11.5329H11.595H11.6571H11.7193H11.7814H11.8435H11.9056H11.9678H12.0299H12.092H12.1541H12.2163H12.2784H12.3405H12.4026H12.4648H12.5269H12.589H12.6511H12.7133H12.7754H12.8375H12.8996H12.9618H13.0239H13.086H13.1481H13.2103H13.2724H13.3345H13.3966H13.4588H13.5209H13.583H13.6451H13.7073H13.7694H13.8315H13.8936H13.9558H14.0179H14.08H14.1421H14.2043H14.2664H14.3285H14.3906H14.4528H14.5149H14.577H14.6391H14.7013H14.7634H14.8255H14.8876H14.9498H15.0119H15.074H15.1361H15.1983H15.2604H15.3225H15.3846H15.4468H15.5089H15.571H15.6331H15.6953H15.7574H15.8195H15.8816H15.9438H16.0059H16.068H16.1301H16.1923H16.2544H16.3165H16.3786H16.4408H16.5029H16.565H16.6271H16.6893H16.7514H16.8135H16.8756H16.9377H16.9999H17.062H17.1241H17.1862H17.2484H17.3105H17.3726H17.4347H17.4969H17.559H17.6211H17.6832H17.7454H17.8075H17.8696H17.9317H17.9939H18.056H18.1181H18.1802H18.2424H18.3045H18.3666H18.4287H18.4909H18.553H18.6151H18.6772H18.7394H18.8015H18.8636H18.9257H18.9879H19.05H19.1121H19.1742H19.2364H19.2985H19.3606H19.4227H19.4849H19.547H19.6091H19.6712H19.7334H19.7955H19.8576H19.9197H19.9819H20.044H20.1061H20.1682H20.2304H20.2925H20.3546H20.4167H20.4789H20.541H20.6031H20.6652H20.7274H20.7895H20.8516H20.9137H20.9759H21.038H21.1001H21.1622H21.2244H21.2865H21.3486H21.4107H21.4729H21.535H21.5971H21.6592H21.7214H21.7835H21.8456H21.9077H21.9699H22.032H22.0941H22.1562H22.2184H22.2805H22.3426H22.4047H22.4669H22.529H22.5911H22.6532H22.7153H22.7775H22.8396H22.9017H22.9638H23.026H23.0881H23.1502H23.2123H23.2745H23.3366H23.3987H23.4608H23.523H23.5851H23.6472H23.7093H23.7715H23.8336H23.8957H23.9578H24.02H24.0821H24.1442H24.2063H24.2685H24.3306H24.3927H24.4548H24.517H24.5791H24.6412H24.7033H24.7655H24.8276H24.8897H24.9518H25.014H25.0761H25.1382H25.2003H25.2625H25.3246H25.3867H25.4488H25.511H25.5731H25.6352H25.6973H25.7595H25.8216H25.8837H25.9458H26.008H26.0701H26.1322H26.1943H26.2565H26.3186H26.3807H26.4428H26.505H26.5671H26.6292H26.6913H26.7535H26.8156H26.8777H26.9398H27.002H27.0641H27.1262H27.1883H27.2505H27.3126H27.3747H27.4368H27.499H27.5611H27.6232H27.6853H27.7475H27.8096H27.8717H27.9338H27.996H28.0581H28.1202H28.1823H28.2445H28.3066H28.3687H28.4308H28.4929H28.5551H28.6172H28.6793H28.7414H28.8036H28.8657H28.9278H28.9899H29.0521H29.1142H29.1763H29.2384H29.3006H29.3627H29.4248H29.4869H29.5491H29.6112H29.6733H29.7354H29.7976H29.8597H29.9218H29.9839H30.0461H30.1082H30.1703H30.2324H30.2946H30.3567H30.4188H30.4809H30.5431H30.6052H30.6673H30.7294H30.7916H30.8537H30.9158H30.9779H31.0401H31.1022H31.1643H31.2264H31.2886H31.3507H31.4128H31.4749H31.5371H31.5992H31.6613H31.7234H31.7856H31.8477H31.9098H31.9719H32.0341H32.0962H32.1583H32.2204H32.2826H32.3447H32.4068H32.4689H32.5311H32.5932H32.6553H32.7174H32.7796H32.8417H32.9038H32.9659H33.0281H33.0902H33.1523H33.2144H33.2766H33.3387H33.4008V0H33.3387H33.2766H33.2144H33.1523H33.0902H33.0281H32.9659H32.9038H32.8417H32.7796H32.7174H32.6553H32.5932H32.5311H32.4689H32.4068H32.3447H32.2826H32.2204H32.1583H32.0962H32.0341H31.9719H31.9098H31.8477H31.7856H31.7234H31.6613H31.5992H31.5371H31.4749H31.4128H31.3507H31.2886H31.2264H31.1643H31.1022H31.0401H30.9779H30.9158H30.8537H30.7916H30.7294H30.6673H30.6052H30.5431H30.4809H30.4188H30.3567H30.2946H30.2324H30.1703H30.1082H30.0461H29.9839H29.9218H29.8597H29.7976H29.7354H29.6733H29.6112H29.5491H29.4869H29.4248H29.3627H29.3006H29.2384H29.1763H29.1142H29.0521H28.9899H28.9278H28.8657H28.8036H28.7414H28.6793H28.6172H28.5551H28.4929H28.4308H28.3687H28.3066H28.2445H28.1823H28.1202H28.0581H27.996H27.9338H27.8717H27.8096H27.7475H27.6853H27.6232H27.5611H27.499H27.4368H27.3747H27.3126H27.2505H27.1883H27.1262H27.0641H27.002H26.9398H26.8777H26.8156H26.7535H26.6913H26.6292H26.5671H26.505H26.4428H26.3807H26.3186H26.2565H26.1943H26.1322H26.0701H26.008H25.9458H25.8837H25.8216H25.7595H25.6973H25.6352H25.5731H25.511H25.4488H25.3867H25.3246H25.2625H25.2003H25.1382H25.0761H25.014H24.9518H24.8897H24.8276H24.7655H24.7033H24.6412H24.5791H24.517H24.4548H24.3927H24.3306H24.2685H24.2063H24.1442H24.0821H24.02H23.9578H23.8957H23.8336H23.7715H23.7093H23.6472H23.5851H23.523H23.4608H23.3987H23.3366H23.2745H23.2123H23.1502H23.0881H23.026H22.9638H22.9017H22.8396H22.7775H22.7153H22.6532H22.5911H22.529H22.4669H22.4047H22.3426H22.2805H22.2184H22.1562H22.0941H22.032H21.9699H21.9077H21.8456H21.7835H21.7214H21.6592H21.5971H21.535H21.4729H21.4107H21.3486H21.2865H21.2244H21.1622H21.1001H21.038H20.9759H20.9137H20.8516H20.7895H20.7274H20.6652H20.6031H20.541H20.4789H20.4167H20.3546H20.2925H20.2304H20.1682H20.1061H20.044H19.9819H19.9197H19.8576H19.7955H19.7334H19.6712H19.6091H19.547H19.4849H19.4227H19.3606H19.2985H19.2364H19.1742H19.1121H19.05H18.9879H18.9257H18.8636H18.8015H18.7394H18.6772H18.6151H18.553H18.4909H18.4287H18.3666H18.3045H18.2424H18.1802H18.1181H18.056H17.9939H17.9317H17.8696H17.8075H17.7454H17.6832H17.6211H17.559H17.4969H17.4347H17.3726H17.3105H17.2484H17.1862H17.1241H17.062H16.9999H16.9377H16.8756H16.8135H16.7514H16.6893H16.6271H16.565H16.5029H16.4408H16.3786H16.3165H16.2544H16.1923H16.1301H16.068H16.0059H15.9438H15.8816H15.8195H15.7574H15.6953H15.6331H15.571H15.5089H15.4468H15.3846H15.3225H15.2604H15.1983H15.1361H15.074H15.0119H14.9498H14.8876H14.8255H14.7634H14.7013H14.6391H14.577H14.5149H14.4528H14.3906H14.3285H14.2664H14.2043H14.1421H14.08H14.0179H13.9558H13.8936H13.8315H13.7694H13.7073H13.6451H13.583H13.5209H13.4588H13.3966H13.3345H13.2724H13.2103H13.1481H13.086H13.0239H12.9618H12.8996H12.8375H12.7754H12.7133H12.6511H12.589H12.5269H12.4648H12.4026H12.3405H12.2784H12.2163H12.1541H12.092H12.0299H11.9678H11.9056H11.8435H11.7814H11.7193H11.6571H11.595H11.5329H11.4708H11.4086H11.3465H11.2844H11.2223H11.1601H11.098H11.0359H10.9738H10.9117H10.8495H10.7874H10.7253H10.6632H10.601H10.5389H10.4768H10.4147H10.3525H10.2904H10.2283H10.1662H10.104H10.0419H9.97978H9.91765H9.85553H9.79341H9.73128H9.66916H9.60703H9.54491H9.48278H9.42066H9.35853H9.29641H9.23428H9.17216H9.11003H9.04791H8.98578H8.92366H8.86154H8.79941H8.73729H8.67516H8.60189H8.53976H8.47764H8.41551H8.35339H8.29126H8.22914H8.16701H8.10489H8.04276H7.98064H7.91851H7.85639H7.79426H7.73214H7.67001H7.60789H7.54576H7.48683H7.4247H7.36258H7.30045H7.23833H7.1762H7.11408H7.05195H6.98983H6.9277H6.86558H6.80345H6.74133H6.6792H6.61708H6.55496H6.49283H6.43071H6.36858H6.30646H6.24433H6.18221H6.12008H6.05796H5.99583H5.93371H5.87158H5.80946H5.74733H5.68521H5.62308H5.56096H5.49883H5.43671H5.37459H5.31246H5.25034H5.18821H5.12609H5.06396H5.00184H4.93971H4.87759H4.81546H4.75334H4.69121H4.62909H4.56696H4.50484H4.44271H4.38059H4.31847H4.25634H4.19422H4.13209H4.06997H4.00784H3.94572H3.88359H3.82147H3.75934H3.69722H3.63509H3.57297H3.51084H3.44872H3.38659H3.32447H3.26234H3.20022H3.1381H3.07597H3.01385H2.95172H2.8896H2.82747H2.76535H2.70322H2.6411H2.57897H2.51685H2.45472H2.3926H2.33047H2.26835H2.20622H2.1441H2.08197H2.01985H1.95773H1.8956H1.83348H1.77135H1.70923H1.6471H1.59294V3.17727ZM31.7457 1.58864V1.65059V1.71255V1.77451V1.83646V1.89842V1.96038V2.02233V2.08429V2.14625V2.2082V2.27016V2.33212V2.39407V2.45603V2.51799V2.57995V2.6419V2.70386V2.76582V2.82777V2.88973V2.95169V3.01364V3.0756V3.13756V3.19951V3.26147V3.32343V3.38538V3.44734V3.5093V3.57125V3.63321V3.69517V3.75713V3.81908V3.88104V3.943V4.00495V4.06691V4.12887V4.19082V4.25278V4.31474V4.37669V4.43865V4.50061V4.56256V4.62452V4.68648V4.74843V4.81039V4.87235V4.9343V4.99626V5.05822V5.12018V5.18213V5.24409V5.30605V5.368V5.42996V5.49192V5.55387V5.61583V5.67779V5.73974V5.8017V5.86366V5.92561V5.98757V6.04953V6.11148V6.17344V6.2354V6.29735V6.35931V6.42127V6.48322V6.54518V6.60714V6.6691V6.73105V6.79301V6.85497V6.91692V6.97888V7.04084V7.10279V7.16475V7.22671V7.28866V7.35062V7.41258V7.47453V7.53649V7.59845V7.6604V7.72236V7.78432V7.84628V7.90823V7.97019V8.03215V8.0941V8.15606V8.21802V8.27997V8.34193V8.40389V8.46584V8.5278V8.58976V8.65171V8.71367V8.77563V8.83758V8.89954V8.9615V9.02345V9.08541V9.14737V9.20932V9.27128V9.33324V9.3952V9.45715V9.51911V9.58107V9.64302V9.70498V9.76694V9.82889V9.89085V9.95281V10.0148V10.0767V10.1387V10.2006V10.2626V10.3245V10.3865V10.4485V10.5104V10.5724V10.6343V10.6963V10.7582V10.8202V10.8822V10.9441V11.0061V11.068V11.13V11.1919V11.2539V11.3159V11.3778V11.4398V11.5017V11.5637V11.6256V11.6876V11.7496V11.8115V11.8735V11.9354V11.9974V12.0593V12.1213V12.1833V12.2452V12.3072V12.3691V12.4311V12.493V12.555V12.617V12.6789V12.7409V12.8028V12.8648V12.9267V12.9887V13.0506V13.1126V13.1746V13.2365V13.2985V13.3604V13.4224V13.4843V13.5463V13.6083V13.6702V13.7322V13.7941V13.8561V13.918V13.98V14.042V14.1039V14.1659V14.2278V14.2898V14.3517V14.4137V14.4757V14.5376V14.5996V14.6615V14.7235V14.7854V14.8474V14.9094V14.9713V15.0333V15.0952V15.1572V15.2191V15.2811V15.3431V15.405V15.467V15.5289V15.5909V15.6528V15.7148V15.7767V15.8387V15.9007V15.9626V16.0246V16.0865V16.1485V16.2104V16.2724V16.3344V16.3963V16.4583V16.5202V16.5822V16.6441V16.7061V16.7681V16.83V16.892V16.9539V17.0159V17.0778V17.1398V17.2018V17.2637V17.3257V17.3876V17.475V17.537V17.5989V17.6609V17.7228V17.7848V17.8467V17.9087V17.9707V18.0326V18.0946V18.1565V18.2185V18.2804V18.3424V18.4044V18.4663V18.5283V18.5902V18.6522V18.7141V18.7761V18.8381V18.9V18.962V19.0239V19.0859V19.1478V19.2098V19.2717V19.3337V19.3957V19.4576V19.5196V19.5815V19.6435V19.7054V19.7674V19.8294V19.8913V19.9533V20.0152V20.0772V20.1391V20.2011V20.2631V20.325V20.387V20.4489V20.5109V20.5728V20.6348V20.6968V20.7587V20.8207V20.8826V20.9446V21.0065V21.0685V21.1305V21.1924V21.2544V21.3163V21.3783V21.4402V21.5022V21.5642V21.6261V21.6881V21.75V21.812V21.8739V21.9359V21.9978V22.0598V22.1218V22.1837V22.2457V22.3076V22.3696V22.4315V22.4935V22.5555V22.6174V22.6794V22.7413V22.8033V22.8652V22.9272V22.9892V23.0511V23.1131V23.175V23.237V23.2989V23.3609V23.4229V23.4848V23.5468V23.6087V23.6707V23.7326V23.7946V23.8566V23.9185V23.9805V24.0424V24.1044V24.1663V24.2283V24.2903V24.3522V24.4142V24.4761V24.5381V24.6V24.662V24.7239V24.7859V24.8479V24.9098V24.9718V25.0337V25.0957V25.1576V25.2196V25.2816V25.3435V25.4055V25.4674V25.5294V25.5913V25.6533V25.7153V25.7772V25.8392V25.9011V25.9631V26.025V26.087V26.149V26.2109V26.2729V26.3348V26.3968V26.4587V26.5207V26.5827V26.6446V26.7066V26.7685V26.8305V26.8924V26.9544V27.0164V27.0783V27.1403V27.2022V27.2642V27.3261V27.3881V27.45V27.512V27.574V27.6359V27.6979V27.7598V27.8218V27.8837V27.9457V28.0077V28.0696V28.1316V28.1935V28.2555V28.3174V28.3794V28.4414V28.5033V28.5653V28.6272V28.6892V28.7511V28.8131V28.8751V28.937V28.999V29.0609V29.1229V29.1848V29.2468V29.3088V29.3707V29.4327V29.4946V29.5566V29.6185V29.6805V29.7425V29.8044V29.8664V29.9283V29.9903V30.0522V30.1142V30.1761V30.2381V30.3001V30.362V30.424V30.4859V30.5479V30.6098V30.6718V30.7338V30.7957V30.8577V30.9196V30.9816V31.0435V31.1055V31.1675V31.2294V31.2914V31.3533V31.4153V31.4772V31.5392V31.6012V31.6631V31.7251V31.787V31.849V31.9109V31.9729V32.0349V32.0968V32.1588V32.2207V32.2827V32.3446V32.4066V32.4686V32.5305V32.5925V32.6544V32.7164V32.7783V32.8403V32.9022V32.9642V33.0262V33.0881V33.1501V33.212V33.274V33.3614H34.9316V33.2994V33.2375V33.1755V33.1135V33.0516V32.9896V32.9277V32.8657V32.8038V32.7418V32.6798V32.6179V32.5559V32.494V32.432V32.3701V32.3081V32.2461V32.1842V32.1222V32.0603V31.9983V31.9364V31.8744V31.8124V31.7505V31.6885V31.6266V31.5646V31.5027V31.4407V31.3787V31.3168V31.2548V31.1929V31.1309V31.069V31.007V30.945V30.8831V30.8211V30.7592V30.6972V30.6353V30.5733V30.5113V30.4494V30.3874V30.3255V30.2635V30.2016V30.1396V30.0777V30.0157V29.9537V29.8918V29.8298V29.7679V29.7059V29.644V29.582V29.52V29.4581V29.3961V29.3342V29.2722V29.2103V29.1483V29.0863V29.0244V28.9624V28.9005V28.8385V28.7766V28.7146V28.6526V28.5907V28.5287V28.4668V28.4048V28.3429V28.2809V28.2189V28.157V28.095V28.0331V27.9711V27.9092V27.8472V27.7852V27.7233V27.6613V27.5994V27.5374V27.4755V27.4135V27.3516V27.2896V27.2276V27.1657V27.1037V27.0418V26.9798V26.9179V26.8559V26.7939V26.732V26.67V26.6081V26.5461V26.4842V26.4222V26.3602V26.2983V26.2363V26.1744V26.1124V26.0505V25.9885V25.9265V25.8646V25.8026V25.7407V25.6787V25.6168V25.5548V25.4928V25.4309V25.3689V25.307V25.245V25.1831V25.1211V25.0592V24.9972V24.9352V24.8733V24.8113V24.7494V24.6874V24.6255V24.5635V24.5015V24.4396V24.3776V24.3157V24.2537V24.1918V24.1298V24.0678V24.0059V23.9439V23.882V23.82V23.7581V23.6961V23.6341V23.5722V23.5102V23.4483V23.3863V23.3244V23.2624V23.2004V23.1385V23.0765V23.0146V22.9526V22.8907V22.8287V22.7667V22.7048V22.6428V22.5809V22.5189V22.457V22.395V22.333V22.2711V22.2091V22.1472V22.0852V22.0233V21.9613V21.8994V21.8374V21.7754V21.7135V21.6515V21.5896V21.5276V21.4657V21.4037V21.3417V21.2798V21.2178V21.1559V21.0939V21.032V20.97V20.908V20.8461V20.7841V20.7222V20.6602V20.5983V20.5363V20.4743V20.4124V20.3504V20.2885V20.2265V20.1646V20.1026V20.0406V19.9787V19.9167V19.8548V19.7928V19.7309V19.6689V19.607V19.545V19.483V19.4211V19.3591V19.2972V19.2352V19.1733V19.1113V19.0493V18.9874V18.9254V18.8635V18.8015V18.7396V18.6776V18.6156V18.5537V18.4917V18.4298V18.3678V18.3059V18.2439V18.1819V18.12V18.058V17.9961V17.9341V17.8722V17.8102V17.7482V17.6863V17.6243V17.5624V17.475V17.413V17.3511V17.2891V17.2272V17.1652V17.1033V17.0413V16.9793V16.9174V16.8554V16.7935V16.7315V16.6696V16.6076V16.5456V16.4837V16.4217V16.3598V16.2978V16.2359V16.1739V16.1119V16.05V15.988V15.9261V15.8641V15.8022V15.7402V15.6783V15.6163V15.5543V15.4924V15.4304V15.3685V15.3065V15.2446V15.1826V15.1206V15.0587V14.9967V14.9348V14.8728V14.8109V14.7489V14.6869V14.625V14.563V14.5011V14.4391V14.3772V14.3152V14.2532V14.1913V14.1293V14.0674V14.0054V13.9435V13.8815V13.8195V13.7576V13.6956V13.6337V13.5717V13.5098V13.4478V13.3858V13.3239V13.2619V13.2V13.138V13.0761V13.0141V12.9522V12.8902V12.8282V12.7663V12.7043V12.6424V12.5804V12.5185V12.4565V12.3945V12.3326V12.2706V12.2087V12.1467V12.0848V12.0228V11.9608V11.8989V11.8369V11.775V11.713V11.6511V11.5891V11.5271V11.4652V11.4032V11.3413V11.2793V11.2174V11.1554V11.0934V11.0315V10.9616V10.8996V10.8377V10.7757V10.7138V10.6518V10.5899V10.5279V10.4659V10.404V10.342V10.2801V10.2181V10.1562V10.0942V10.0322V9.97028V9.90833V9.84637V9.78441V9.72246V9.6605V9.59854V9.53658V9.47463V9.41267V9.35071V9.28876V9.2268V9.16484V9.10289V9.04093V8.97897V8.91702V8.85506V8.7931V8.73114V8.66919V8.60723V8.54528V8.48332V8.42136V8.3594V8.29745V8.23549V8.17353V8.11158V8.04962V7.98766V7.92571V7.86375V7.80179V7.73984V7.67788V7.61592V7.55397V7.49201V7.43005V7.3681V7.30614V7.24418V7.18223V7.12027V7.05831V6.99V6.92804V6.86609V6.80413V6.74217V6.68022V6.61826V6.5563V6.49435V6.43239V6.37043V6.30848V6.24652V6.18456V6.1226V6.06065V5.99869V5.93673V5.87478V5.81282V5.75086V5.68891V5.62695V5.56499V5.50304V5.44108V5.37912V5.31717V5.25521V5.19325V5.1313V5.06934V5.00738V4.94543V4.88347V4.82151V4.75955V4.6976V4.63564V4.57368V4.51173V4.44977V4.38781V4.32586V4.2639V4.20194V4.13999V4.07803V4.01607V3.95412V3.89216V3.8302V3.76825V3.70629V3.64433V3.58238V3.52042V3.45846V3.3965V3.33455V3.27259V3.21063V3.14868V3.08672V3.02476V2.96281V2.90085V2.83889V2.77694V2.71498V2.65302V2.59107V2.52911V2.46715V2.4052V2.34324V2.28128V2.21933V2.15737V2.09541V2.03345V1.9715V1.90954V1.84758V1.78563V1.72367V1.66171V1.58864H31.7457ZM33.3387 31.7727H33.2766H33.2144H33.1523H33.0902H33.0281H32.9659H32.9038H32.8417H32.7796H32.7174H32.6553H32.5932H32.5311H32.4689H32.4068H32.3447H32.2826H32.2204H32.1583H32.0962H32.0341H31.9719H31.9098H31.8477H31.7856H31.7234H31.6613H31.5992H31.5371H31.4749H31.4128H31.3507H31.2886H31.2264H31.1643H31.1022H31.0401H30.9779H30.9158H30.8537H30.7916H30.7294H30.6673H30.6052H30.5431H30.4809H30.4188H30.3567H30.2946H30.2324H30.1703H30.1082H30.0461H29.9839H29.9218H29.8597H29.7976H29.7354H29.6733H29.6112H29.5491H29.4869H29.4248H29.3627H29.3006H29.2384H29.1763H29.1142H29.0521H28.9899H28.9278H28.8657H28.8036H28.7414H28.6793H28.6172H28.5551H28.4929H28.4308H28.3687H28.3066H28.2445H28.1823H28.1202H28.0581H27.996H27.9338H27.8717H27.8096H27.7475H27.6853H27.6232H27.5611H27.499H27.4368H27.3747H27.3126H27.2505H27.1883H27.1262H27.0641H27.002H26.9398H26.8777H26.8156H26.7535H26.6913H26.6292H26.5671H26.505H26.4428H26.3807H26.3186H26.2565H26.1943H26.1322H26.0701H26.008H25.9458H25.8837H25.8216H25.7595H25.6973H25.6352H25.5731H25.511H25.4488H25.3867H25.3246H25.2625H25.2003H25.1382H25.0761H25.014H24.9518H24.8897H24.8276H24.7655H24.7033H24.6412H24.5791H24.517H24.4548H24.3927H24.3306H24.2685H24.2063H24.1442H24.0821H24.02H23.9578H23.8957H23.8336H23.7715H23.7093H23.6472H23.5851H23.523H23.4608H23.3987H23.3366H23.2745H23.2123H23.1502H23.0881H23.026H22.9638H22.9017H22.8396H22.7775H22.7153H22.6532H22.5911H22.529H22.4669H22.4047H22.3426H22.2805H22.2184H22.1562H22.0941H22.032H21.9699H21.9077H21.8456H21.7835H21.7214H21.6592H21.5971H21.535H21.4729H21.4107H21.3486H21.2865H21.2244H21.1622H21.1001H21.038H20.9759H20.9137H20.8516H20.7895H20.7274H20.6652H20.6031H20.541H20.4789H20.4167H20.3546H20.2925H20.2304H20.1682H20.1061H20.044H19.9819H19.9197H19.8576H19.7955H19.7334H19.6712H19.6091H19.547H19.4849H19.4227H19.3606H19.2985H19.2364H19.1742H19.1121H19.05H18.9879H18.9257H18.8636H18.8015H18.7394H18.6772H18.6151H18.553H18.4909H18.4287H18.3666H18.3045H18.2424H18.1802H18.1181H18.056H17.9939H17.9317H17.8696H17.8075H17.7454H17.6832H17.6211H17.559H17.4969H17.4347H17.3726H17.3105H17.2484H17.1862H17.1241H17.062H16.9999H16.9377H16.8756H16.8135H16.7514H16.6893H16.6271H16.565H16.5029H16.4408H16.3786H16.3165H16.2544H16.1923H16.1301H16.068H16.0059H15.9438H15.8816H15.8195H15.7574H15.6953H15.6331H15.571H15.5089H15.4468H15.3846H15.3225H15.2604H15.1983H15.1361H15.074H15.0119H14.9498H14.8876H14.8255H14.7634H14.7013H14.6391H14.577H14.5149H14.4528H14.3906H14.3285H14.2664H14.2043H14.1421H14.08H14.0179H13.9558H13.8936H13.8315H13.7694H13.7073H13.6451H13.583H13.5209H13.4588H13.3966H13.3345H13.2724H13.2103H13.1481H13.086H13.0239H12.9618H12.8996H12.8375H12.7754H12.7133H12.6511H12.589H12.5269H12.4648H12.4026H12.3405H12.2784H12.2163H12.1541H12.092H12.0299H11.9678H11.9056H11.8435H11.7814H11.7193H11.6571H11.595H11.5329H11.4708H11.4086H11.3465H11.2844H11.2223H11.1601H11.1506H11.0885H11.0263H10.9642H10.9021H10.84H10.7778H10.7157H10.6536H10.5915H10.5293H10.4672H10.4051H10.343H10.2808H10.2187H10.1566H10.0945H10.0323H9.97022H9.9081H9.84597H9.78385H9.72172H9.6596H9.59747H9.53535H9.47322H9.4111H9.34898H9.28685H9.22473H9.1626H9.10048H9.03835H8.97623H8.9141H8.85198H8.78985H8.72773H8.6656H8.60348H8.54135H8.47923H8.4171H8.35498H8.29285H8.23073H8.1686H8.10648H8.04436H7.98223H7.92011H7.85798H7.79586H7.73373H7.67161H7.60948H7.54736H7.48523H7.42311H7.36098H7.29886H7.23673H7.17461H7.11249H7.05036H6.98824H6.92611H6.86399H6.80186H6.73974H6.67761H6.61549H6.55336H6.49124H6.42911H6.37177H6.30964H6.24752H6.18539H6.12327H6.06114H5.99902H5.93689H5.87477H5.81264H5.75052H5.6884H5.62627H5.56415H5.50202H5.4399H5.37777H5.31565H5.25352H5.1914H5.12927H5.06715H5.00502H4.9429H4.88077H4.81865H4.75652H4.6944H4.63227H4.57015H4.50803H4.4459H4.38378H4.32165H4.25953H4.1974H4.13528H4.07315H4.01103H3.9489H3.88678H3.82465H3.76253H3.7004H3.63828H3.57615H3.51403H3.4519H3.38978H3.32766H3.26553H3.20341H3.14128H3.07916H3.01703H2.95491H2.89278H2.83066H2.76853H2.70641H2.64428H2.58216H2.52003H2.45791H2.39578H2.33366H2.27153H2.20941H2.14729H2.08516H2.02304H1.96091H1.89879H1.83666H1.77454H1.71241H1.65029H1.59294V34.95H1.65507H1.71719H1.77932H1.84144H1.90357H1.96569H2.02781H2.08994H2.15206H2.21419H2.27631H2.33844H2.40056H2.46269H2.52481H2.58694H2.64906H2.71119H2.77331H2.83544H2.89756H2.95969H3.02181H3.08394H3.14606H3.20818H3.27031H3.33243H3.39456H3.45668H3.51881H3.58093H3.64306H3.70518H3.76731H3.82943H3.89156H3.95368H4.01581H4.07793H4.14006H4.20218H4.26431H4.32643H4.38855H4.45068H4.5128H4.57493H4.63705H4.69918H4.7613H4.82343H4.88555H4.94768H5.0098H5.07193H5.13405H5.19618H5.2583H5.32043H5.38255H5.44467H5.5068H5.56892H5.63105H5.69317H5.7553H5.81742H5.87955H5.94167H6.0038H6.06592H6.12805H6.19017H6.2523H6.31442H6.37177H6.43389H6.49602H6.55814H6.62027H6.68239H6.74452H6.80664H6.86876H6.93089H6.99301H7.05514H7.11726H7.17939H7.24151H7.30364H7.36576H7.42789H7.49001H7.55214H7.61426H7.67639H7.73851H7.80064H7.86276H7.92489H7.98701H8.04913H8.11126H8.17338H8.23551H8.29763H8.35976H8.42188H8.48401H8.54613H8.60826H8.67038H8.73251H8.79463H8.85676H8.91888H8.98101H9.04313H9.10526H9.16738H9.2295H9.29163H9.35375H9.41588H9.478H9.54013H9.60225H9.66438H9.7265H9.78863H9.85075H9.91288H9.975H10.0371H10.0993H10.1614H10.2235H10.2856H10.3477H10.4099H10.472H10.5341H10.5962H10.6584H10.7205H10.7826H10.8447H10.9069H10.969H11.0311H11.0932H11.1506H11.2127H11.2748H11.337H11.3991H11.4612H11.5233H11.5855H11.6476H11.7097H11.7718H11.834H11.8961H11.9582H12.0203H12.0825H12.1446H12.2067H12.2688H12.331H12.3931H12.4552H12.5173H12.5795H12.6416H12.7037H12.7658H12.828H12.8901H12.9522H13.0143H13.0765H13.1386H13.2007H13.2628H13.325H13.3871H13.4492H13.5113H13.5735H13.6356H13.6977H13.7598H13.822H13.8841H13.9462H14.0083H14.0705H14.1326H14.1947H14.2568H14.319H14.3811H14.4432H14.5053H14.5675H14.6296H14.6917H14.7538H14.816H14.8781H14.9402H15.0023H15.0645H15.1266H15.1887H15.2508H15.3129H15.3751H15.4372H15.4993H15.5614H15.6236H15.6857H15.7478H15.8099H15.8721H15.9342H15.9963H16.0584H16.1206H16.1827H16.2448H16.3069H16.3691H16.4312H16.4933H16.5554H16.6176H16.6797H16.7418H16.8039H16.8661H16.9282H16.9903H17.0524H17.1146H17.1767H17.2388H17.3009H17.3631H17.4252H17.4873H17.5494H17.6116H17.6737H17.7358H17.7979H17.8601H17.9222H17.9843H18.0464H18.1086H18.1707H18.2328H18.2949H18.3571H18.4192H18.4813H18.5434H18.6056H18.6677H18.7298H18.7919H18.8541H18.9162H18.9783H19.0404H19.1026H19.1647H19.2268H19.2889H19.3511H19.4132H19.4753H19.5374H19.5996H19.6617H19.7238H19.7859H19.8481H19.9102H19.9723H20.0344H20.0966H20.1587H20.2208H20.2829H20.3451H20.4072H20.4693H20.5314H20.5936H20.6557H20.7178H20.7799H20.842H20.9042H20.9663H21.0284H21.0905H21.1527H21.2148H21.2769H21.339H21.4012H21.4633H21.5254H21.5875H21.6497H21.7118H21.7739H21.836H21.8982H21.9603H22.0224H22.0845H22.1467H22.2088H22.2709H22.333H22.3952H22.4573H22.5194H22.5815H22.6437H22.7058H22.7679H22.83H22.8922H22.9543H23.0164H23.0785H23.1407H23.2028H23.2649H23.327H23.3892H23.4513H23.5134H23.5755H23.6377H23.6998H23.7619H23.824H23.8862H23.9483H24.0104H24.0725H24.1347H24.1968H24.2589H24.321H24.3832H24.4453H24.5074H24.5695H24.6317H24.6938H24.7559H24.818H24.8802H24.9423H25.0044H25.0665H25.1287H25.1908H25.2529H25.315H25.3772H25.4393H25.5014H25.5635H25.6257H25.6878H25.7499H25.812H25.8742H25.9363H25.9984H26.0605H26.1227H26.1848H26.2469H26.309H26.3712H26.4333H26.4954H26.5575H26.6196H26.6818H26.7439H26.806H26.8681H26.9303H26.9924H27.0545H27.1166H27.1788H27.2409H27.303H27.3651H27.4273H27.4894H27.5515H27.6136H27.6758H27.7379H27.8H27.8621H27.9243H27.9864H28.0485H28.1106H28.1728H28.2349H28.297H28.3591H28.4213H28.4834H28.5455H28.6076H28.6698H28.7319H28.794H28.8561H28.9183H28.9804H29.0425H29.1046H29.1668H29.2289H29.291H29.3531H29.4153H29.4774H29.5395H29.6016H29.6638H29.7259H29.788H29.8501H29.9123H29.9744H30.0365H30.0986H30.1608H30.2229H30.285H30.3471H30.4093H30.4714H30.5335H30.5956H30.6578H30.7199H30.782H30.8441H30.9063H30.9684H31.0305H31.0926H31.1548H31.2169H31.279H31.3411H31.4033H31.4654H31.5275H31.5896H31.6518H31.7139H31.776H31.8381H31.9002H31.9624H32.0245H32.0866H32.1488H32.2109H32.273H32.3351H32.3972H32.4594H32.5215H32.5836H32.6457H32.7079H32.77H32.8321H32.8942H32.9564H33.0185H33.0806H33.1427H33.2049H33.267H33.3291H33.3912V31.7727H33.3387ZM3.18588 33.3614V33.2994V33.2375V33.1755V33.1135V33.0516V32.9896V32.9277V32.8657V32.8038V32.7418V32.6798V32.6179V32.5559V32.494V32.432V32.3701V32.3081V32.2461V32.1842V32.1222V32.0603V31.9983V31.9364V31.8744V31.8124V31.7505V31.6885V31.6266V31.5646V31.5027V31.4407V31.3787V31.3168V31.2548V31.1929V31.1309V31.069V31.007V30.945V30.8831V30.8211V30.7592V30.6972V30.6353V30.5733V30.5113V30.4494V30.3874V30.3255V30.2635V30.2016V30.1396V30.0777V30.0157V29.9537V29.8918V29.8298V29.7679V29.7059V29.644V29.582V29.52V29.4581V29.3961V29.3342V29.2722V29.2103V29.1483V29.0863V29.0244V28.9624V28.9005V28.8385V28.7766V28.7146V28.6526V28.5907V28.5287V28.4668V28.4048V28.3429V28.2809V28.2189V28.157V28.095V28.0331V27.9711V27.9092V27.8472V27.7852V27.7233V27.6613V27.5994V27.5374V27.4755V27.4135V27.3516V27.2896V27.2276V27.1657V27.1037V27.0418V26.9798V26.9179V26.8559V26.7939V26.732V26.67V26.6081V26.5461V26.4842V26.4222V26.3602V26.2983V26.2363V26.1744V26.1124V26.0505V25.9885V25.9265V25.8646V25.8026V25.7407V25.6787V25.6168V25.5548V25.4928V25.4309V25.3689V25.307V25.245V25.1831V25.1211V25.0592V24.9972V24.9352V24.8733V24.8113V24.7494V24.6874V24.6255V24.5635V24.5015V24.4396V24.3776V24.3157V24.2537V24.1918V24.1298V24.0678V24.0059V23.9439V23.882V23.82V23.7581V23.6961V23.6341V23.5722V23.5102V23.4483V23.3863V23.3244V23.2624V23.2004V23.1385V23.0765V23.0146V22.9526V22.8907V22.8287V22.7667V22.7048V22.6428V22.5809V22.5189V22.457V22.395V22.333V22.2711V22.2091V22.1472V22.0852V22.0233V21.9613V21.8994V21.8374V21.7754V21.7135V21.6515V21.5896V21.5276V21.4657V21.4037V21.3417V21.2798V21.2178V21.1559V21.0939V21.032V20.97V20.908V20.8461V20.7841V20.7222V20.6523V20.5903V20.5284V20.4664V20.4044V20.3425V20.2805V20.2186V20.1566V20.0947V20.0327V19.9707V19.9088V19.8468V19.7849V19.7229V19.661V19.599V19.5371V19.4751V19.4131V19.3512V19.2892V19.2273V19.1653V19.1034V19.0414V18.9794V18.9175V18.8555V18.7936V18.7316V18.6697V18.6077V18.5457V18.4838V18.4218V18.3599V18.2979V18.236V18.174V18.112V18.0501V17.9881V17.9262V17.8642V17.8023V17.7403V17.6783V17.6164V17.5544V17.4925V17.4305V17.3686V17.3066V17.2446V17.1827V17.1207V17.0588V16.9968V16.9349V16.8729V16.8109V16.749V16.687V16.6251V16.5631V16.5012V16.4392V16.3773V16.3153V16.2533V16.1914V16.1294V16.0675V16.0055V15.9436V15.8816V15.8196V15.7577V15.6957V15.6338V15.5718V15.5099V15.4479V15.3859V15.324V15.262V15.2001V15.1381V15.0762V15.0142V14.9522V14.8903V14.8283V14.7664V14.7044V14.6425V14.5805V14.5185V14.4566V14.3946V14.3327V14.2707V14.2088V14.1468V14.0849V14.0229V13.9609V13.899V13.837V13.7751V13.7131V13.6512V13.5892V13.5272V13.4653V13.4033V13.3414V13.2794V13.2175V13.1555V13.0935V13.0316V12.9696V12.9077V12.8457V12.7838V12.7218V12.6598V12.5979V12.5359V12.474V12.412V12.3501V12.2881V12.2261V12.1642V12.1022V12.0403V11.9783V11.9164V11.8544V11.7924V11.7305V11.6685V11.6066V11.5446V11.4827V11.4207V11.3588V11.2968V11.2348V11.1729V11.1109V11.049V10.987V10.9251V10.8631V10.8011V10.7392V10.6772V10.6153V10.5533V10.4914V10.4294V10.3674V10.3055V10.2435V10.1816V10.1196V10.0577V9.9957V9.93374V9.84955V9.78759V9.72563V9.66368V9.60172V9.53976V9.47781V9.41585V9.35389V9.29193V9.22998V9.16802V9.10606V9.04411V8.98215V8.92019V8.85824V8.79628V8.73432V8.67237V8.61041V8.54845V8.4865V8.42454V8.36258V8.30062V8.23867V8.17671V8.11475V8.0528V7.99084V7.92888V7.86693V7.80497V7.74301V7.68106V7.6191V7.55714V7.49519V7.43323V7.37127V7.30932V7.24736V7.1854V7.12345V7.06149V6.99953V6.93758V6.87562V6.81366V6.7517V6.68975V6.62779V6.56583V6.50388V6.44192V6.37996V6.31801V6.25605V6.19409V6.13214V6.07018V6.00822V5.94627V5.88431V5.82235V5.7604V5.69844V5.63648V5.57453V5.51257V5.45061V5.38865V5.3267V5.26474V5.20278V5.14083V5.07887V5.01691V4.95496V4.893V4.83104V4.76909V4.70713V4.64517V4.58322V4.52126V4.4593V4.39735V4.33539V4.27343V4.21147V4.14952V4.08756V4.0256V3.96365V3.90169V3.83973V3.77778V3.71582V3.65386V3.59191V3.52995V3.46799V3.40604V3.34408V3.28212V3.22017V3.15821V3.09625V3.0343V2.97234V2.91038V2.84843V2.78647V2.72451V2.66255V2.6006V2.53864V2.47668V2.41473V2.35277V2.29081V2.22886V2.1669V2.10494V2.04299V1.98103V1.91907V1.85712V1.79516V1.7332V1.67125V1.58864H0V1.65059V1.71255V1.77451V1.83646V1.89842V1.96038V2.02233V2.08429V2.14625V2.2082V2.27016V2.33212V2.39407V2.45603V2.51799V2.57995V2.6419V2.70386V2.76582V2.82777V2.88973V2.95169V3.01364V3.0756V3.13756V3.19951V3.26147V3.32343V3.38538V3.44734V3.5093V3.57125V3.63321V3.69517V3.75713V3.81908V3.88104V3.943V4.00495V4.06691V4.12887V4.19082V4.25278V4.31474V4.37669V4.43865V4.50061V4.56256V4.62452V4.68648V4.74843V4.81039V4.87235V4.9343V4.99626V5.05822V5.12018V5.18213V5.24409V5.30605V5.368V5.42996V5.49192V5.55387V5.61583V5.67779V5.73974V5.8017V5.86366V5.92561V5.98757V6.04953V6.11148V6.17344V6.2354V6.29735V6.35931V6.42127V6.48322V6.54518V6.60714V6.6691V6.73105V6.79301V6.85497V6.91692V6.97888V7.04084V7.10279V7.16475V7.22671V7.28866V7.35062V7.41258V7.47453V7.53649V7.59845V7.6604V7.72236V7.78432V7.84628V7.90823V7.97019V8.03215V8.0941V8.15606V8.21802V8.27997V8.34193V8.40389V8.46584V8.5278V8.58976V8.65171V8.71367V8.77563V8.83758V8.89954V8.9615V9.02345V9.08541V9.14737V9.20932V9.27128V9.33324V9.3952V9.45715V9.51911V9.58107V9.64302V9.70498V9.76694V9.82889V9.89085V9.95281V10.0148V10.0767V10.1387V10.2006V10.2626V10.3245V10.3865V10.4485V10.5104V10.5724V10.6343V10.6963V10.7582V10.8202V10.8822V10.9441V11.0061V11.068V11.13V11.1919V11.2539V11.3159V11.3778V11.4398V11.5017V11.5637V11.6256V11.6876V11.7496V11.8115V11.8735V11.9354V11.9974V12.0593V12.1213V12.1833V12.2452V12.3072V12.3691V12.4311V12.493V12.555V12.617V12.6789V12.7409V12.8028V12.8648V12.9267V12.9887V13.0506V13.1126V13.1746V13.2365V13.2985V13.3604V13.4224V13.4843V13.5463V13.6083V13.6702V13.7322V13.7941V13.8561V13.918V13.98V14.042V14.1039V14.1659V14.2278V14.2898V14.3517V14.4137V14.4757V14.5376V14.5996V14.6615V14.7235V14.7854V14.8474V14.9094V14.9713V15.0333V15.0952V15.1572V15.2191V15.2811V15.3431V15.405V15.467V15.5289V15.5909V15.6528V15.7148V15.7767V15.8387V15.9007V15.9626V16.0246V16.0865V16.1485V16.2104V16.2724V16.3344V16.3963V16.4583V16.5202V16.5822V16.6441V16.7061V16.7681V16.83V16.892V16.9539V17.0159V17.0778V17.1398V17.2018V17.2637V17.3257V17.3876V17.4496V17.5115V17.5735V17.6355V17.6974V17.7594V17.8213V17.8833V17.9452V18.0072V18.0691V18.1311V18.1931V18.255V18.317V18.3789V18.4409V18.5028V18.5648V18.6268V18.6887V18.7507V18.8126V18.8746V18.9365V18.9985V19.0605V19.1224V19.1844V19.2463V19.3083V19.3702V19.4322V19.4942V19.5561V19.6181V19.68V19.742V19.8039V19.8659V19.9279V19.9898V20.0518V20.1137V20.1757V20.2376V20.2996V20.3616V20.4235V20.4855V20.5474V20.6523V20.7142V20.7762V20.8381V20.9001V20.9621V21.024V21.086V21.1479V21.2099V21.2718V21.3338V21.3958V21.4577V21.5197V21.5816V21.6436V21.7055V21.7675V21.8295V21.8914V21.9534V22.0153V22.0773V22.1392V22.2012V22.2632V22.3251V22.3871V22.449V22.511V22.5729V22.6349V22.6968V22.7588V22.8208V22.8827V22.9447V23.0066V23.0686V23.1305V23.1925V23.2545V23.3164V23.3784V23.4403V23.5023V23.5642V23.6262V23.6882V23.7501V23.8121V23.874V23.936V23.9979V24.0599V24.1219V24.1838V24.2458V24.3077V24.3697V24.4316V24.4936V24.5556V24.6175V24.6795V24.7414V24.8034V24.8653V24.9273V24.9893V25.0512V25.1132V25.1751V25.2371V25.299V25.361V25.4229V25.4849V25.5469V25.6088V25.6708V25.7327V25.7947V25.8566V25.9186V25.9806V26.0425V26.1045V26.1664V26.2284V26.2903V26.3523V26.4143V26.4762V26.5382V26.6001V26.6621V26.724V26.786V26.848V26.9099V26.9719V27.0338V27.0958V27.1577V27.2197V27.2817V27.3436V27.4056V27.4675V27.5295V27.5914V27.6534V27.7153V27.7773V27.8393V27.9012V27.9632V28.0251V28.0871V28.149V28.211V28.273V28.3349V28.3969V28.4588V28.5208V28.5827V28.6447V28.7067V28.7686V28.8306V28.8925V28.9545V29.0164V29.0784V29.1404V29.2023V29.2643V29.3262V29.3882V29.4501V29.5121V29.5741V29.636V29.698V29.7599V29.8219V29.8838V29.9458V30.0078V30.0697V30.1317V30.1936V30.2556V30.3175V30.3795V30.4415V30.5034V30.5654V30.6273V30.6893V30.7512V30.8132V30.8751V30.9371V30.9991V31.061V31.123V31.1849V31.2469V31.3088V31.3708V31.4328V31.4947V31.5567V31.6186V31.6806V31.7425V31.8045V31.8665V31.9284V31.9904V32.0523V32.1143V32.1762V32.2382V32.3002V32.3621V32.4241V32.486V32.548V32.6099V32.6719V32.7339V32.7958V32.8578V32.9197V32.9817V33.0436V33.1056V33.1676V33.2295V33.2915V33.3614H3.18588ZM0.446024 2.03504V2.09541V2.15578V2.21615V2.27652V2.33688V2.39725V2.45762V2.51799V2.57836V2.63873V2.69909V2.75946V2.81983V2.8802V2.94057V3.00093V3.0613V3.12167V3.18204V3.24241V3.30278V3.36314V3.42351V3.48388V3.54425V3.60462V3.66498V3.72535V3.78572V3.84609V3.90646V3.96683V4.02719V4.08756V4.14793V4.2083V4.26867V4.32903V4.3894V4.44977V4.51014V4.57051V4.63088V4.69124V4.75161V4.81198V4.87235V4.93272V4.99308V5.05345V5.11382V5.17419V5.23456V5.29493V5.35529V5.41566V5.47603V5.5364V5.59677V5.65713V5.7175V5.77787V5.83824V5.89861V5.95897V6.01934V6.07971V6.14008V6.20045V6.26082V6.32118V6.38155V6.44192V6.50229V6.56266V6.62303V6.68339V6.74376V6.80413V6.8645V6.92487V6.98523V7.0456V7.10597V7.16634V7.22671V7.28708V7.34744V7.40781V7.46818V7.52855V7.58892V7.64928V7.70965V7.77002V7.83039V7.89076V7.94318V8.00355V8.06392V8.12429V8.18465V8.24502V8.30539V8.36576V8.42613V8.4865V8.54686V8.60723V8.6676V8.72797V8.78834V8.84871V8.90907V8.96944V9.02981V9.09018V9.15055V9.21091V9.27128V9.33165V9.39202V9.45239V9.51275V9.57312V9.63349V9.69386V9.75423V9.8146V9.87496V9.93533V9.9957V10.0561V10.1164V10.1768V10.2372V10.2975V10.3579V10.4183V10.4786V10.539V10.5994V10.6597V10.7201V10.7805V10.8409V10.9012V10.9616V11.022V11.0823V11.1427V11.2031V11.2634V11.3238V11.3842V11.4445V11.5049V11.5653V11.6256V11.686V11.7464V11.8067V11.8671V11.9275V11.9879V12.0482V12.1086V12.169V12.2293V12.2897V12.3501V12.4104V12.4708V12.5312V12.5915V12.6519V12.7091V12.7695V12.8298V12.8902V12.9506V13.0109V13.0713V13.1317V13.192V13.2524V13.3128V13.3731V13.4335V13.4939V13.5542V13.6146V13.675V13.7354V13.7957V13.8561V13.9165V13.9768V14.0372V14.0976V14.1579V14.2183V14.2787V14.339V14.3994V14.4598V14.5201V14.5805V14.6409V14.7012V14.7616V14.822V14.8823V14.9427V15.0031V15.0635V15.1238V15.1842V15.2446V15.3049V15.3653V15.4257V15.486V15.5464V15.6068V15.6671V15.7275V15.7879V15.8482V15.9086V15.969V16.0293V16.0897V16.1501V16.2104V16.2708V16.3312V16.3916V16.4519V16.5123V16.5727V16.633V16.6934V16.7538V16.8141V16.8745V16.9349V16.9952V17.0556V17.116V17.1763V17.2367V17.2971V17.3574V17.4178V17.475V17.5354V17.5957V17.6561V17.7165V17.7768V17.8372V17.8976V17.9579V18.0183V18.0787V18.1391V18.1994V18.2598V18.3202V18.3805V18.4409V18.5013V18.5616V18.622V18.6824V18.7427V18.8031V18.8635V18.9238V18.9842V19.0446V19.1049V19.1653V19.2257V19.286V19.3464V19.4068V19.4671V19.5275V19.5879V19.6483V19.7086V19.769V19.8294V19.8897V19.9501V20.0105V20.0708V20.1312V20.1916V20.2519V20.3123V20.3727V20.433V20.4934V20.5538V20.6141V20.6745V20.7349V20.7952V20.8556V20.916V20.9764V21.0367V21.0971V21.1575V21.2178V21.2782V21.3386V21.3989V21.4593V21.5197V21.58V21.6404V21.7008V21.7611V21.8215V21.8819V21.9422V22.0026V22.063V22.1234V22.1837V22.2441V22.3045V22.3648V22.4252V22.4856V22.5459V22.6063V22.6667V22.727V22.7874V22.8478V22.9081V22.9685V23.0289V23.0892V23.1496V23.21V23.2703V23.3307V23.3911V23.4515V23.5118V23.5722V23.6326V23.6929V23.7533V23.8137V23.874V23.9344V23.9948V24.0551V24.1155V24.1759V24.2362V24.2966V24.357V24.4173V24.4777V24.5381V24.5984V24.6588V24.7192V24.7796V24.8399V24.9003V24.9607V25.021V25.0814V25.1418V25.2021V25.2625V25.3229V25.3832V25.4436V25.504V25.5643V25.6247V25.6851V25.7454V25.8058V25.8662V25.9265V25.9869V26.0473V26.1077V26.168V26.2284V26.2888V26.3491V26.4095V26.4699V26.5302V26.5906V26.651V26.7113V26.7717V26.8321V26.8924V26.9528V27.0068V27.0672V27.1276V27.1879V27.2483V27.3087V27.369V27.4294V27.4898V27.5501V27.6105V27.6709V27.7312V27.7916V27.852V27.9123V27.9727V28.0331V28.0934V28.1538V28.2142V28.2746V28.3349V28.3953V28.4557V28.516V28.5764V28.6368V28.6971V28.7575V28.8179V28.8782V28.9386V28.999V29.0593V29.1197V29.1801V29.2404V29.3008V29.3612V29.4215V29.4819V29.5423V29.6027V29.663V29.7234V29.7838V29.8441V29.9045V29.9649V30.0252V30.0856V30.146V30.2063V30.2667V30.3271V30.3874V30.4478V30.5082V30.5685V30.6289V30.6893V30.7496V30.81V30.8704V30.9307V30.9911V31.0515V31.1119V31.1722V31.2326V31.293V31.3533V31.4137V31.4741V31.5344V31.5948V31.6552V31.7155V31.7759V31.8363V31.8966V31.957V32.0174V32.0777V32.1381V32.1985V32.2589V32.3192V32.3796V32.44V32.5003V32.5607V32.6211V32.6814V32.7418V32.8022V32.8625V32.9229H3.63191V32.8625V32.8022V32.7418V32.6814V32.6211V32.5607V32.5003V32.44V32.3796V32.3192V32.2589V32.1985V32.1381V32.0777V32.0174V31.957V31.8966V31.8363V31.7759V31.7155V31.6552V31.5948V31.5344V31.4741V31.4137V31.3533V31.293V31.2326V31.1722V31.1119V31.0515V30.9911V30.9307V30.8704V30.81V30.7496V30.6893V30.6289V30.5685V30.5082V30.4478V30.3874V30.3271V30.2667V30.2063V30.146V30.0856V30.0252V29.9649V29.9045V29.8441V29.7838V29.7234V29.663V29.6027V29.5423V29.4819V29.4215V29.3612V29.3008V29.2404V29.1801V29.1197V29.0593V28.999V28.9386V28.8782V28.8179V28.7575V28.6971V28.6368V28.5764V28.516V28.4557V28.3953V28.3349V28.2746V28.2142V28.1538V28.0934V28.0331V27.9727V27.9123V27.852V27.7916V27.7312V27.6709V27.6105V27.5501V27.4898V27.4294V27.369V27.3087V27.2483V27.1879V27.1276V27.0672V27.0068V26.9465V26.8861V26.8257V26.7653V26.705V26.6446V26.5842V26.5239V26.4635V26.4031V26.3428V26.2824V26.222V26.1617V26.1013V26.0409V25.9806V25.9202V25.8598V25.7995V25.7391V25.6787V25.6183V25.558V25.4976V25.4372V25.3769V25.3165V25.2561V25.1958V25.1354V25.075V25.0147V24.9543V24.8939V24.8336V24.7732V24.7128V24.6525V24.5921V24.5317V24.4714V24.411V24.3506V24.2903V24.2299V24.1695V24.1091V24.0488V23.9884V23.928V23.8677V23.8073V23.7469V23.6866V23.6262V23.5658V23.5055V23.4451V23.3847V23.3244V23.264V23.2036V23.1433V23.0829V23.0225V22.9622V22.9018V22.8414V22.781V22.7207V22.6603V22.5999V22.5396V22.4792V22.4188V22.3585V22.2981V22.2377V22.1774V22.117V22.0566V21.9963V21.9359V21.8755V21.8152V21.7548V21.6944V21.6341V21.5737V21.5133V21.4529V21.3926V21.3322V21.2718V21.2115V21.1511V21.0907V21.0304V20.97V20.9096V20.8493V20.7889V20.7285V20.6682V20.6078V20.5474V20.4871V20.4267V20.3663V20.306V20.2456V20.1852V20.1248V20.0645V20.0041V19.9437V19.8834V19.823V19.7626V19.7023V19.6419V19.5815V19.5212V19.4608V19.4004V19.3401V19.2797V19.2193V19.159V19.0986V19.0382V18.9778V18.9175V18.8571V18.7967V18.7364V18.676V18.6156V18.5553V18.4949V18.4345V18.3742V18.3138V18.2534V18.1931V18.1327V18.0723V18.012V17.9516V17.8912V17.8309V17.7705V17.7101V17.6497V17.5894V17.529V17.475V17.4146V17.3543V17.2939V17.2335V17.1732V17.1128V17.0524V16.9921V16.9317V16.8713V16.8109V16.7506V16.6902V16.6298V16.5695V16.5091V16.4487V16.3884V16.328V16.2676V16.2073V16.1469V16.0865V16.0262V15.9658V15.9054V15.8451V15.7847V15.7243V15.664V15.6036V15.5432V15.4829V15.4225V15.3621V15.3017V15.2414V15.181V15.1206V15.0603V14.9999V14.9395V14.8792V14.8188V14.7584V14.6981V14.6377V14.5773V14.517V14.4566V14.3962V14.3359V14.2755V14.2151V14.1547V14.0944V14.034V13.9736V13.9133V13.8529V13.7925V13.7322V13.6718V13.6114V13.5511V13.4907V13.4303V13.37V13.3096V13.2492V13.1889V13.1285V13.0681V13.0078V12.9474V12.887V12.8267V12.7663V12.7091V12.6487V12.5884V12.528V12.4676V12.4073V12.3469V12.2865V12.2261V12.1658V12.1054V12.045V11.9847V11.9243V11.8639V11.8036V11.7432V11.6828V11.6225V11.5621V11.5017V11.4414V11.381V11.3206V11.2603V11.1999V11.1395V11.0792V11.0188V10.9584V10.898V10.8377V10.7773V10.7169V10.6566V10.5962V10.5358V10.4755V10.4151V10.3547V10.2944V10.234V10.1736V10.1133V10.0529V9.99252V9.93215V9.87179V9.81142V9.75105V9.69068V9.63031V9.56995V9.50958V9.44921V9.38884V9.32847V9.2681V9.20774V9.14737V9.087V9.02663V8.96626V8.9059V8.84553V8.78516V8.72479V8.66442V8.60405V8.54369V8.48332V8.42295V8.36258V8.30221V8.24185V8.18148V8.12111V8.06074V8.00037V7.94318V7.88281V7.82245V7.76208V7.70171V7.64134V7.58097V7.52061V7.46024V7.39987V7.3395V7.27913V7.21876V7.1584V7.09803V7.03766V6.97729V6.91692V6.85655V6.79619V6.73582V6.67545V6.61508V6.55471V6.49435V6.43398V6.37361V6.31324V6.25287V6.1925V6.13214V6.07177V6.0114V5.95103V5.89066V5.8303V5.76993V5.70956V5.64919V5.58882V5.52845V5.46809V5.40772V5.34735V5.28698V5.22661V5.16625V5.10588V5.04551V4.98514V4.92477V4.8644V4.80404V4.74367V4.6833V4.62293V4.56256V4.5022V4.44183V4.38146V4.32109V4.26072V4.20035V4.13999V4.07962V4.01925V3.95888V3.89851V3.83815V3.77778V3.71741V3.65704V3.59667V3.5363V3.47594V3.41557V3.3552V3.29483V3.23446V3.1741V3.11373V3.05336V2.99299V2.93262V2.87225V2.81189V2.75152V2.69115V2.63078V2.57041V2.51005V2.44968V2.38931V2.32894V2.26857V2.2082V2.14784V2.08747V2.0271H0.446024V2.03504ZM2.03897 34.502H2.0995H2.16003H2.22056H2.28109H2.34162H2.40216H2.46269H2.52322H2.58375H2.64428H2.70482H2.76535H2.82588H2.88641H2.94694H3.00747H3.06801H3.12854H3.18907H3.2496H3.31013H3.37066H3.4312H3.49173H3.55226H3.61279H3.67332H3.73386H3.79439H3.85492H3.91545H3.97598H4.03651H4.09705H4.15758H4.21811H4.27864H4.33917H4.39971H4.46024H4.52077H4.5813H4.64183H4.70236H4.7629H4.82343H4.88396H4.94449H5.00502H5.06556H5.12609H5.18662H5.24715H5.30768H5.36821H5.42875H5.48928H5.54981H5.61034H5.67087H5.7314H5.79194H5.85247H5.913H5.97353H6.03406H6.09459H6.15513H6.21566H6.27619H6.33672H6.39725H6.45779H6.51832H6.57885H6.63938H6.69991H6.76044H6.82098H6.88151H6.94204H7.00257H7.0631H7.12364H7.18417H7.2447H7.30523H7.36576H7.42629H7.48683H7.54736H7.60789H7.66842H7.72895H7.78948H7.85002H7.91055H7.97108H8.03161H8.09214H8.15268H8.21321H8.27374H8.33427H8.3948H8.45533H8.51587H8.5764H8.63693H8.69746H8.75799H8.81853H8.87906H8.93959H9.00012H9.06065H9.12118H9.18172H9.24225H9.30278H9.36331H9.42384H9.48438H9.54491H9.60544H9.66597H9.7265H9.78703H9.84757H9.9081H9.96863H10.0292H10.0897H10.1502H10.2108H10.2713H10.3318H10.3924H10.4529H10.5134H10.5739H10.6345H10.695H10.7555H10.8161H10.8766H10.9371H10.9977H11.0582H11.1187H11.1793H11.2398H11.3003H11.3609H11.4214H11.4819H11.5425H11.603H11.6635H11.7241H11.7846H11.8451H11.9056H11.9662H12.0267H12.0872H12.1478H12.2083H12.2688H12.3294H12.3899H12.4504H12.511H12.5715H12.632H12.6926H12.7531H12.8136H12.8742H12.9347H12.9952H13.0558H13.1163H13.1768H13.2373H13.2979H13.3584H13.4189H13.4795H13.54H13.6005H13.6611H13.7216H13.7821H13.8427H13.9032H13.9637H14.0243H14.0848H14.1453H14.2059H14.2664H14.3269H14.3874H14.448H14.5085H14.569H14.6296H14.6901H14.7506H14.8112H14.8717H14.9322H14.9928H15.0533H15.1138H15.1744H15.2349H15.2954H15.356H15.4165H15.477H15.5376H15.5981H15.6586H15.7191H15.7797H15.8402H15.9007H15.9613H16.0218H16.0823H16.1429H16.2034H16.2639H16.3245H16.385H16.4455H16.5061H16.5666H16.6271H16.6877H16.7482H16.8087H16.8693H16.9298H16.9903H17.0508H17.1114H17.1719H17.2324H17.293H17.3535H17.414H17.4746H17.5351H17.5956H17.6562H17.7167H17.7772H17.8378H17.8983H17.9588H18.0194H18.0799H18.1404H18.201H18.2615H18.322H18.3825H18.4431H18.5036H18.5641H18.6247H18.6852H18.7457H18.8063H18.8668H18.9273H18.9879H19.0484H19.1089H19.1695H19.23H19.2905H19.3511H19.4116H19.4721H19.5327H19.5932H19.6537H19.7142H19.7748H19.8353H19.8958H19.9564H20.0169H20.0774H20.138H20.1985H20.259H20.3196H20.3801H20.4406H20.5012H20.5617H20.6222H20.6828H20.7433H20.8038H20.8644H20.9249H20.9854H21.0459H21.1065H21.167H21.2275H21.2881H21.3486H21.4091H21.4697H21.5302H21.5907H21.6513H21.7118H21.7723H21.8329H21.8934H21.9539H22.0145H22.075H22.1355H22.1961H22.2566H22.3171H22.3776H22.4382H22.4987H22.5592H22.6198H22.6803H22.7408H22.8014H22.8619H22.9224H22.983H23.0435H23.104H23.1646H23.2251H23.2856H23.3462H23.4067H23.4672H23.5278H23.5883H23.6488H23.7093H23.7699H23.8304H23.8909H23.9515H24.012H24.0725H24.1331H24.1936H24.2541H24.3147H24.3752H24.4357H24.4963H24.5568H24.6173H24.6779H24.7384H24.7989H24.8594H24.92H24.9805H25.041H25.1016H25.1621H25.2226H25.2832H25.3437H25.4042H25.4648H25.5253H25.5858H25.6464H25.7069H25.7674H25.828H25.8885H25.949H26.0096H26.0701H26.1306H26.1911H26.2517H26.3122H26.3727H26.4333H26.4938H26.5543H26.6149H26.6754H26.7359H26.7965H26.857H26.9175H26.9781H27.0386H27.0991H27.1597H27.2202H27.2807H27.3413H27.4018H27.4623H27.5228H27.5834H27.6439H27.7044H27.765H27.8255H27.886H27.9466H28.0071H28.0676H28.1282H28.1887H28.2492H28.3098H28.3703H28.4308H28.4914H28.5519H28.6124H28.673H28.7335H28.794H28.8545H28.9151H28.9756H29.0361H29.0967H29.1572H29.2177H29.2783H29.3388H29.3993H29.4599H29.5204H29.5809H29.6415H29.702H29.7625H29.8231H29.8836H29.9441H30.0047H30.0652H30.1257H30.1862H30.2468H30.3073H30.3678H30.4284H30.4889H30.5494H30.61H30.6705H30.731H30.7916H30.8521H30.9126H30.9732H31.0337H31.0942H31.1548H31.2153H31.2758H31.3364H31.3969H31.4574H31.5179H31.5785H31.639H31.6995H31.7601H31.8206H31.8811H31.9417H32.0022H32.0627H32.1233H32.1838H32.2443H32.3049H32.3654H32.4259H32.4865H32.547H32.6075H32.668H32.7286H32.7891H32.8496H32.9102H32.9707H33.0312V31.3247H32.9707H32.9102H32.8496H32.7891H32.7286H32.668H32.6075H32.547H32.4865H32.4259H32.3654H32.3049H32.2443H32.1838H32.1233H32.0627H32.0022H31.9417H31.8811H31.8206H31.7601H31.6995H31.639H31.5785H31.5179H31.4574H31.3969H31.3364H31.2758H31.2153H31.1548H31.0942H31.0337H30.9732H30.9126H30.8521H30.7916H30.731H30.6705H30.61H30.5494H30.4889H30.4284H30.3678H30.3073H30.2468H30.1862H30.1257H30.0652H30.0047H29.9441H29.8836H29.8231H29.7625H29.702H29.6415H29.5809H29.5204H29.4599H29.3993H29.3388H29.2783H29.2177H29.1572H29.0967H29.0361H28.9756H28.9151H28.8545H28.794H28.7335H28.673H28.6124H28.5519H28.4914H28.4308H28.3703H28.3098H28.2492H28.1887H28.1282H28.0676H28.0071H27.9466H27.886H27.8255H27.765H27.7044H27.6439H27.5834H27.5228H27.4623H27.4018H27.3413H27.2807H27.2202H27.1597H27.0991H27.0386H26.9781H26.9175H26.857H26.7965H26.7359H26.6754H26.6149H26.5543H26.4938H26.4333H26.3727H26.3122H26.2517H26.1911H26.1306H26.0701H26.0096H25.949H25.8885H25.828H25.7674H25.7069H25.6464H25.5858H25.5253H25.4648H25.4042H25.3437H25.2832H25.2226H25.1621H25.1016H25.041H24.9805H24.92H24.8594H24.7989H24.7384H24.6779H24.6173H24.5568H24.4963H24.4357H24.3752H24.3147H24.2541H24.1936H24.1331H24.0725H24.012H23.9515H23.8909H23.8304H23.7699H23.7093H23.6488H23.5883H23.5278H23.4672H23.4067H23.3462H23.2856H23.2251H23.1646H23.104H23.0435H22.983H22.9224H22.8619H22.8014H22.7408H22.6803H22.6198H22.5592H22.4987H22.4382H22.3776H22.3171H22.2566H22.1961H22.1355H22.075H22.0145H21.9539H21.8934H21.8329H21.7723H21.7118H21.6513H21.5907H21.5302H21.4697H21.4091H21.3486H21.2881H21.2275H21.167H21.1065H21.0459H20.9854H20.9249H20.8644H20.8038H20.7433H20.6828H20.6222H20.5617H20.5012H20.4406H20.3801H20.3196H20.259H20.1985H20.138H20.0774H20.0169H19.9564H19.8958H19.8353H19.7748H19.7142H19.6537H19.5932H19.5327H19.4721H19.4116H19.3511H19.2905H19.23H19.1695H19.1089H19.0484H18.9879H18.9273H18.8668H18.8063H18.7457H18.6852H18.6247H18.5641H18.5036H18.4431H18.3825H18.322H18.2615H18.201H18.1404H18.0799H18.0194H17.9588H17.8983H17.8378H17.7772H17.7167H17.6562H17.5956H17.5351H17.4746H17.414H17.3535H17.293H17.2324H17.1719H17.1114H17.0508H16.9903H16.9298H16.8693H16.8087H16.7482H16.6877H16.6271H16.5666H16.5061H16.4455H16.385H16.3245H16.2639H16.2034H16.1429H16.0823H16.0218H15.9613H15.9007H15.8402H15.7797H15.7191H15.6586H15.5981H15.5376H15.477H15.4165H15.356H15.2954H15.2349H15.1744H15.1138H15.0533H14.9928H14.9322H14.8717H14.8112H14.7506H14.6901H14.6296H14.569H14.5085H14.448H14.3874H14.3269H14.2664H14.2059H14.1453H14.0848H14.0243H13.9637H13.9032H13.8427H13.7821H13.7216H13.6611H13.6005H13.54H13.4795H13.4189H13.3584H13.2979H13.2373H13.1768H13.1163H13.0558H12.9952H12.9347H12.8742H12.8136H12.7531H12.6926H12.632H12.5715H12.511H12.4504H12.3899H12.3294H12.2688H12.2083H12.1478H12.0872H12.0267H11.9662H11.9056H11.8451H11.7846H11.7241H11.6635H11.603H11.5425H11.4819H11.4214H11.3609H11.3003H11.2398H11.1793H11.1187H11.0582H10.9977H10.9371H10.8766H10.8161H10.7555H10.695H10.6345H10.5739H10.5134H10.4529H10.3924H10.3318H10.2713H10.2108H10.1502H10.0897H10.0292H9.96863H9.9081H9.84757H9.78703H9.7265H9.66597H9.60544H9.54491H9.48438H9.42384H9.36331H9.30278H9.24225H9.18172H9.12118H9.06065H9.00012H8.93959H8.87906H8.81853H8.75799H8.69746H8.63693H8.5764H8.51587H8.45533H8.3948H8.33427H8.27374H8.21321H8.15268H8.09214H8.03161H7.97108H7.91055H7.85002H7.78948H7.72895H7.66842H7.60789H7.54736H7.48683H7.42629H7.36576H7.30523H7.2447H7.18417H7.12364H7.0631H7.00257H6.94204H6.88151H6.82098H6.76044H6.69991H6.63938H6.57885H6.51832H6.45779H6.39725H6.33672H6.27619H6.21566H6.15513H6.09459H6.03406H5.97353H5.89388H5.83335H5.77282H5.71229H5.65176H5.59123H5.53069H5.47016H5.40963H5.3491H5.28857H5.22803H5.1675H5.10697H5.04644H4.98591H4.92538H4.86484H4.80431H4.74378H4.68325H4.62272H4.56219H4.50165H4.44112H4.38059H4.32006H4.25953H4.19899H4.13846H4.07793H4.0174H3.95687H3.89634H3.8358H3.77527H3.71474H3.65421H3.59368H3.53314H3.47261H3.41208H3.35155H3.29102H3.23049H3.16995H3.10942H3.04889H2.98836H2.92783H2.8673H2.80676H2.74623H2.6857H2.62517H2.56464H2.5041H2.44357H2.38304H2.32251H2.26198H2.20145H2.14091H2.08038H2.01985V34.502H2.03897ZM34.484 32.9134V32.8768V32.8403V32.8038V32.7672V32.7307V32.6941V32.6576V32.6211V32.5845V32.548V32.5114V32.4749V32.4384V32.4018V32.3653V32.3288V32.2922V32.2557V32.2191V32.1826V32.1461V32.1095V32.073V32.0364V31.9999V31.9634V31.9268V31.8903V31.8538V31.8172V31.7807V31.7441V31.7076V31.6711V31.6345V31.598V31.5614V31.5249V31.4884V31.4518V31.4153V31.3787V31.3422V31.3057V31.2691V31.2326V31.1961V31.1595V31.123V31.0864V31.0499V31.0134V30.9768V30.9403V30.9037V30.8672V30.8307V30.7941V30.7576V30.7211V30.6845V30.648V30.6114V30.5749V30.5384V30.5018V30.4653V30.4287V30.3922V30.3557V30.3191V30.2826V30.246V30.2095V30.173V30.1841V30.1476V30.111V30.0745V30.0379V30.0014V29.9649V29.9283V29.8918V29.8552V29.8187V29.7822V29.7456V29.7091V29.6726V29.636V29.5995V29.5629V29.5264V29.4899V29.4533V29.4168V29.3802V29.3437V29.3072V29.2706V29.2341V29.1975V29.161V29.1245V29.0879V29.0514V29.0149V28.9783V28.9418V28.9052V28.8687V28.8322V28.7956V28.7591V28.7225V28.686V28.6495V28.6129V28.5764V28.5399V28.5033V28.4668V28.4302V28.3937V28.3572V28.3206V28.2841V28.2475V28.211V28.1745V28.1379V28.1014V28.0649V28.0283V27.9918V27.9552V27.9187V27.8822V27.8456V27.8091V27.7725V27.736V27.6995V27.6629V27.6264V27.5898V27.5533V27.5168V27.4802V27.4437V27.4072V27.3706V27.3341V27.2975V27.261V27.2245V27.1879V27.1514V27.1148V27.0783V27.0418V27.0052V26.9687V26.9322V26.8956V26.8591V26.8225V26.786V26.7495L31.2981 26.7256V26.7622V26.7987V26.8352V26.8718V26.9083V26.9449V26.9814V27.0179V27.0545V27.091V27.1276V27.1641V27.2006V27.2372V27.2737V27.3102V27.3468V27.3833V27.4199V27.4564V27.4929V27.5295V27.566V27.6026V27.6391V27.6756V27.7122V27.7487V27.7852V27.8218V27.8583V27.8949V27.9314V27.9679V28.0045V28.041V28.0776V28.1141V28.1506V28.1872V28.2237V28.2603V28.2968V28.3333V28.3699V28.4064V28.4429V28.4795V28.516V28.5526V28.5891V28.6256V28.6622V28.6987V28.7353V28.7718V28.8083V28.8449V28.8814V28.9179V28.9545V28.991V29.0276V29.0641V29.1006V29.1372V29.1737V29.2103V29.2468V29.2833V29.3199V29.3564V29.393V29.4295V29.466V29.5026V29.5391V29.5756V29.6122V29.6487V29.6853V29.7218V29.7583V29.7949V29.8314V29.868V29.9045V29.941V29.9776V30.0141V30.0506V30.0872V30.1237V30.1603V30.1968V30.2333V30.2699V30.3064V30.343V30.3795V30.416V30.4526V30.4891V30.5256V30.5622V30.5987V30.6353V30.6718V30.7083V30.7449V30.7814V30.818V30.8545V30.891V30.9276V30.9641V31.0007V31.0372V31.0737V31.1103V31.1468V31.1833V31.2199V31.2564V31.293V31.3295V31.366V31.4026V31.4391V31.4757V31.5122V31.5487V31.5853V31.6218V31.6583V31.6949V31.7314V31.768V31.8045V31.841V31.8776V31.9141V31.9507V31.9872V32.0237V32.0603V32.0968V32.1333V32.1699V32.2064V32.243V32.2795V32.316V32.3526V32.3891V32.4257V32.4622V32.4987V32.5353V32.5718V32.6083V32.6449V32.6814V32.718V32.7545V32.791V32.8276V32.8641V32.9007V32.9372L34.484 32.961V32.9134ZM32.8911 25.1942H32.8576H32.8242H32.7907H32.7573H32.7238H32.6903H32.6569H32.6234H32.59H32.5565H32.5231H32.4896H32.4562H32.4227H32.3893H32.3558H32.3224H32.2889H32.2555H32.222H32.1886H32.1551H32.1217H32.0882H32.0548H32.0213H31.9879H31.9544H31.921H31.8875H31.8541H31.8206H31.7872H31.7537H31.7202H31.6868H31.6533H31.6199H31.5864H31.553H31.5195H31.4861H31.4526H31.4192H31.3857H31.3523H31.3188H31.2854H31.2519H31.2185H31.185H31.1516H31.1181H31.0847H31.0512H31.0178H30.9843H30.9509H30.9174H30.884H30.8505H30.8171H30.7836H30.7501H30.7167H30.6832H30.6498H30.6163H30.5829H30.5494H30.516H30.4825H30.4491H30.4156H30.3822H30.3487H30.3153H30.2818H30.2484H30.2149H30.1815H30.148H30.1146H30.0811H30.0477H30.0142H29.9808H29.9473H29.9139H29.8804H29.8469H29.8135H29.78H29.7466H29.7131H29.6797H29.6462H29.6128H29.5793H29.5459H29.5124H29.479H29.4455H29.4121H29.3786H29.3452H29.3117H29.2783H29.2448H29.2114H29.1779H29.1445H29.111H29.0776H29.0441H29.0107H28.9772H28.9438H28.9103H28.8768H28.8434H28.8099H28.7765H28.743H28.7096H28.6761H28.6427H28.6092H28.5758H28.5423H28.5089H28.4754H28.442H28.4085H28.3751H28.3416H28.3082H28.2747H28.2413H28.2078H28.1744H28.1409H28.1075H28.074H28.0406H28.0071H27.9737H27.9402H27.9067H27.8733H27.8398H27.8064H27.7729H27.7395H27.706H27.6726H27.6391H27.6057H27.5722H27.5388H27.5053H27.4719H27.4384H27.405H27.3715H27.3381H27.3046H27.2712H27.2377H27.2043H27.1708H27.1374H27.1039H27.0705H27.037H27.0035H26.9701H26.9366H26.9032H26.8697H26.8363H26.8028H26.7694H26.7359H26.7025H26.669H26.6356H26.6021H26.5687H26.5352H26.5018H26.4683H26.4349H26.4014H26.368H26.3345H26.3011H26.2676H26.2342H26.2007H26.1673H26.1338H26.1004H26.0669H26.0334H26H25.9665H25.9331H25.8996H25.8662H25.8327H25.7993H25.7658H25.7324H25.6989H25.6655H25.632H25.5986H25.5651H25.5317H25.4982H25.4648H25.4313H25.3979H25.3644H25.331H25.2975H25.2641H25.2306H25.1972H25.1637H25.1302H25.0968H25.0633H25.0299H24.9964H24.963H24.9295H24.8961H24.8626H24.8292H24.7957H24.7623H24.7288H24.6954H24.6619H24.6285H24.595H24.5616H24.5281H24.4947H24.4612H24.4278H24.3943H24.3609H24.3274H24.294H24.2605H24.2271H24.1936H24.1601H24.1267H24.0932H24.0598H24.0263H23.9929H23.9594H23.926H23.8925H23.8591H23.8256H23.7922H23.7587H23.7253H23.6918H23.6584H23.6249H23.5915H23.558H23.5246H23.4911H23.4577H23.4242H23.3908H23.3573H23.3239H23.2904H23.257H23.2235H23.19H23.1566H23.1231H23.0897H23.0562H23.0228H22.9893H22.9559H22.9224H22.889H22.8555H22.8221H22.7886H22.7552H22.7217H22.6883H22.6548H22.6214H22.5879H22.5545H22.521H22.4876H22.4541H22.4207H22.3872H22.3538H22.3203H22.2868H22.2534H22.2199H22.1865H22.3012H22.2677H22.2343H22.2008H22.1674H22.1339H22.1005H22.067H22.0336H22.0001H21.9667H21.9332H21.8998H21.8663H21.8329H21.7994H21.766H21.7325H21.6991H21.6656H21.6321H21.5987H21.5652H21.5318H21.4983H21.4649H21.4314H21.398H21.3645H21.3311H21.2976H21.2642H21.2307H21.1973H21.1638H21.1304H21.0969H21.0635H21.03H20.9966H20.9631H20.9297H20.8962H20.8628H20.8293H20.7959H20.7624H20.729H20.6955H20.662H20.6286H20.5951H20.5617H20.5282H20.4948H20.4613H20.4279H20.3944H20.361H20.3275H20.2941H20.2606H20.2272H20.1937H20.1603H20.1268H20.0934H20.0599H20.0265H19.993H19.9596H19.9261H19.8927H19.8592H19.8258H19.7923H19.7589H19.7254H19.6919H19.6585H19.625H19.5916H19.5581H19.5247H19.4912H19.4578H19.4243H19.3909H19.3574H19.324H19.2905H19.2571H19.2236H19.1902H19.1567H19.1233H19.0898H19.0564H19.0229H18.9895H18.956H18.9226H18.8891H18.8557H18.8222H18.7887H18.7553H18.7218H18.6884H18.6549H18.6215H18.588H18.5546H18.5211H18.4877H18.4542H18.4208H18.3873H18.3539H18.3204H18.287H18.2535H18.2201H18.1866H18.1532H18.1197H18.0863H18.0528H18.0194H17.9859H17.9525H17.919H17.8855H17.8521H17.8186H17.7852H17.7517H17.7183H17.6848H17.6514H17.6179H17.5845H17.551H17.5176H17.4841H17.4507H17.4172H17.3838H17.3503H17.3169H17.2834H17.25H17.2165H17.1831H17.1496H17.1162H17.0827H17.0493H17.0158H16.9824H16.9489H16.9154H16.882H16.8485H16.8151H16.7816H16.7482H16.7147H16.6813H16.6478H16.6144H16.5809H16.5475H16.514H16.4806H16.4471H16.4137H16.3802H16.3468H16.3133H16.2799H16.2464H16.213H16.1795H16.1461H16.1126H16.0792H16.0457H16.0123H15.9788H15.9453H15.9119V28.3715H15.9453H15.9788H16.0123H16.0457H16.0792H16.1126H16.1461H16.1795H16.213H16.2464H16.2799H16.3133H16.3468H16.3802H16.4137H16.4471H16.4806H16.514H16.5475H16.5809H16.6144H16.6478H16.6813H16.7147H16.7482H16.7816H16.8151H16.8485H16.882H16.9154H16.9489H16.9824H17.0158H17.0493H17.0827H17.1162H17.1496H17.1831H17.2165H17.25H17.2834H17.3169H17.3503H17.3838H17.4172H17.4507H17.4841H17.5176H17.551H17.5845H17.6179H17.6514H17.6848H17.7183H17.7517H17.7852H17.8186H17.8521H17.8855H17.919H17.9525H17.9859H18.0194H18.0528H18.0863H18.1197H18.1532H18.1866H18.2201H18.2535H18.287H18.3204H18.3539H18.3873H18.4208H18.4542H18.4877H18.5211H18.5546H18.588H18.6215H18.6549H18.6884H18.7218H18.7553H18.7887H18.8222H18.8557H18.8891H18.9226H18.956H18.9895H19.0229H19.0564H19.0898H19.1233H19.1567H19.1902H19.2236H19.2571H19.2905H19.324H19.3574H19.3909H19.4243H19.4578H19.4912H19.5247H19.5581H19.5916H19.625H19.6585H19.6919H19.7254H19.7589H19.7923H19.8258H19.8592H19.8927H19.9261H19.9596H19.993H20.0265H20.0599H20.0934H20.1268H20.1603H20.1937H20.2272H20.2606H20.2941H20.3275H20.361H20.3944H20.4279H20.4613H20.4948H20.5282H20.5617H20.5951H20.6286H20.662H20.6955H20.729H20.7624H20.7959H20.8293H20.8628H20.8962H20.9297H20.9631H20.9966H21.03H21.0635H21.0969H21.1304H21.1638H21.1973H21.2307H21.2642H21.2976H21.3311H21.3645H21.398H21.4314H21.4649H21.4983H21.5318H21.5652H21.5987H21.6321H21.6656H21.6991H21.7325H21.766H21.7994H21.8329H21.8663H21.8998H21.9332H21.9667H22.0001H22.0336H22.067H22.1005H22.1339H22.1674H22.2008H22.2343H22.2677H22.3012H22.3346H22.3681H22.4015H22.435H22.4684H22.5019H22.5353H22.5688H22.6023H22.6357H22.6692H22.7026H22.7361H22.7695H22.803H22.8364H22.8699H22.9033H22.9368H22.9702H23.0037H23.0371H23.0706H23.104H23.1375H23.1709H23.2044H23.2378H23.2713H23.3047H23.3382H23.3716H23.4051H23.4385H23.472H23.5054H23.5389H23.5724H23.6058H23.6393H23.6727H23.7062H23.7396H23.7731H23.8065H23.84H23.8734H23.9069H23.9403H23.9738H24.0072H24.0407H24.0741H24.1076H24.141H24.1745H24.2079H24.2414H24.2748H24.3083H24.3417H24.3752H24.4086H24.4421H24.4755H24.509H24.5425H24.5759H24.6094H24.6428H24.6763H24.7097H24.7432H24.7766H24.8101H24.8435H24.877H24.9104H24.9439H24.9773H25.0108H25.0442H25.0777H25.1111H25.1446H25.178H25.2115H25.2449H25.2784H25.3118H25.3453H25.3787H25.4122H25.4457H25.4791H25.5126H25.546H25.5795H25.6129H25.6464H25.6798H25.7133H25.7467H25.7802H25.8136H25.8471H25.8805H25.914H25.9474H25.9809H26.0143H26.0478H26.0812H26.1147H26.1481H26.1816H26.215H26.2485H26.2819H26.3154H26.3489H26.3823H26.4158H26.4492H26.4827H26.5161H26.5496H26.583H26.6165H26.6499H26.6834H26.7168H26.7503H26.7837H26.8172H26.8506H26.8841H26.9175H26.951H26.9844H27.0179H27.0513H27.0848H27.1182H27.1517H27.1851H27.2186H27.252H27.2855H27.319H27.3524H27.3859H27.4193H27.4528H27.4862H27.5197H27.5531H27.5866H27.62H27.6535H27.6869H27.7204H27.7538H27.7873H27.8207H27.8542H27.8876H27.9211H27.9545H27.988H28.0214H28.0549H28.0883H28.1218H28.1552H28.1887H28.2221H28.2556H28.2891H28.3225H28.356H28.3894H28.4229H28.4563H28.4898H28.5232H28.5567H28.5901H28.6236H28.657H28.6905H28.7239H28.7574H28.7908H28.8243H28.8577H28.8912H28.9246H28.9581H28.9915H29.025H29.0584H29.0919H29.1253H29.1588H29.1923H29.2257H29.2592H29.2926H29.3261H29.3595H29.393H29.4264H29.4599H29.4933H29.5268H29.5602H29.5937H29.6271H29.6606H29.694H29.7275H29.7609H29.7944H29.8278H29.8613H29.8947H29.9282H29.9616H29.9951H30.0285H30.062H30.0954H30.1289H30.1624H30.1958H30.2293H30.2627H30.2962H30.3296H30.3631H30.3965H30.43H30.4634H30.4969H30.5303H30.5638H30.5972H30.6307H30.6641H30.6976H30.731H30.7645H30.7979H30.8314H30.8648H30.8983H30.9317H30.9652H30.9986H31.0321H31.0656H31.099H31.1325H31.1659H31.1994H31.2328H31.2663H31.2997H31.3332H31.3666H31.4001H31.4335H31.467H31.5004H31.5339H31.5673H31.6008H31.6342H31.6677H31.7011H31.7346H31.768H31.8015H31.8349H31.8684H31.9018H31.9353H31.9687H32.0022H32.0357H32.0691H32.1026H32.136H32.1695H32.2029H32.2364H32.2698H32.3033H32.3367H32.3702H32.4036H32.4371H32.4705H32.504H32.5374H32.5709H32.6043H32.6378H32.6712H32.7047H32.7381H32.7716H32.805H32.8385H32.8719H32.9054H32.9389H32.9723H33.0058H33.0392V25.1942H32.8911ZM17.6052 26.7828V26.751V26.7193V26.6859V26.6541V26.6224V26.5906V26.5588V26.5271V26.4953V26.4619V26.4301V26.3984V26.3666L14.4193 26.338V26.3698V26.4015V26.4349V26.4667V26.4985V26.5302V26.562V26.5938V26.6255V26.6573V26.6891V26.7225V26.7558L17.6052 26.7828ZM16.0123 27.925H16.0457H16.0792H16.1126H16.1461H16.1795H16.213H16.2464H16.2799H16.3133H16.3468H16.3802H16.4137H16.4471H16.4806H16.514H16.5475H16.5809H16.6144H16.6478H16.6813H16.7147H16.7482H16.7816H16.8151H16.8485H16.882H16.9154H16.9489H16.9824H17.0158H17.0493H17.0827H17.1162H17.1496H17.1831H17.2165H17.25H17.2834H17.3169H17.3503H17.3838H17.4172H17.4507H17.4841H17.5176H17.551H17.5845H17.6179H17.6514H17.6848H17.7183H17.7517H17.7852H17.8186H17.8521H17.8855H17.919H17.9525H17.9859H18.0194H18.0528H18.0863H18.1197H18.1532H18.1866H18.2201H18.2535H18.287H18.3204H18.3539H18.3873H18.4208H18.4542H18.4877H18.5211H18.5546H18.588H18.6215H18.6549H18.6884H18.7218H18.7553H18.7887H18.8222H18.8557H18.8891H18.9226H18.956H18.9895H19.0229H19.0564H19.0898H19.1233H19.1567H19.1902H19.2236H19.2571H19.2905H19.324H19.3574H19.3909H19.4243H19.4578H19.4912H19.5247H19.5581H19.5916H19.625H19.6585H19.6919H19.7254H19.7589H19.7923H19.8258H19.8592H19.8927H19.9261H19.9596H19.993H20.0265H20.0599H20.0934H20.1268H20.1603H20.1937H20.2272H20.2606H20.2941H20.3275H20.361H20.3944H20.4279H20.4613H20.4948H20.5282H20.5617H20.5951H20.6286H20.662H20.6955H20.729H20.7624H20.7959H20.8293H20.8628H20.8962H20.9297H20.9631H20.9966H21.03H21.0635H21.0969H21.1304H21.1638H21.1973H21.2307H21.2642H21.2976H21.3311H21.3645H21.398H21.4314H21.4649H21.4983H21.5318H21.5652H21.5987H21.6321H21.6656H21.6991H21.7325H21.766H21.7994H21.8329H21.8663H21.8998H21.9332H21.9667H22.0001H22.0336H22.067H22.1005H22.1339H22.1674H22.2008H22.2343H22.2677H22.3012H22.3346H22.3681H22.4015H22.435H22.4684H22.5019H22.5353H22.5688H22.6023H22.6357H22.6692H22.7026H22.7361H22.7695H22.803H22.8364H22.8699H22.9033H22.9368H22.9702H23.0037H23.0371H23.0706H23.104H23.1375H23.1709H23.2044H23.2378H23.2713H23.3047H23.3382H23.3716H23.4051H23.4385H23.472H23.5054H23.5389H23.5724H23.6058H23.6393H23.6727H23.7062H23.7396H23.7731H23.8065H23.84H23.8734H23.9069H23.9403H23.9738H24.0072H24.0407H24.0741H24.1076H24.141H24.1745H24.2079H24.2414H24.2748H24.3083H24.3417H24.3752H24.4086H24.4421H24.4755H24.509H24.5425H24.5759H24.6094H24.6428H24.6763H24.7097H24.7432H24.7766H24.8101H24.8435H24.877H24.9104H24.9439H24.9773H25.0108H25.0442H25.0777H25.1111H25.1446H25.178H25.2115H25.2449H25.2784H25.3118H25.3453H25.3787H25.4122H25.4457H25.4791H25.5126H25.546H25.5795H25.4871H25.5205H25.554H25.5874H25.6209H25.6543H25.6878H25.7212H25.7547H25.7881H25.8216H25.855H25.8885H25.9219H25.9554H25.9888H26.0223H26.0557H26.0892H26.1227H26.1561H26.1896H26.223H26.2565H26.2899H26.3234H26.3568H26.3903H26.4237H26.4572H26.4906H26.5241H26.5575H26.591H26.6244H26.6579H26.6913H26.7248H26.7582H26.7917H26.8251H26.8586H26.892H26.9255H26.9589H26.9924H27.0258H27.0593H27.0928H27.1262H27.1597H27.1931H27.2266H27.26H27.2935H27.3269H27.3604H27.3938H27.4273H27.4607H27.4942H27.5276H27.5611H27.5945H27.628H27.6614H27.6949H27.7283H27.7618H27.7952H27.8287H27.8621H27.8956H27.929H27.9625H27.996H28.0294H28.0629H28.0963H28.1298H28.1632H28.1967H28.2301H28.2636H28.297H28.3305H28.3639H28.3974H28.4308H28.4643H28.4977H28.5312H28.5646H28.5981H28.6315H28.665H28.6984H28.7319H28.7653H28.7988H28.8322H28.8657H28.8991H28.9326H28.9661H28.9995H29.033H29.0664H29.0999H29.1333H29.1668H29.2002H29.2337H29.2671H29.3006H29.334H29.3675H29.4009H29.4344H29.4678H29.5013H29.5347H29.5682H29.6016H29.6351H29.6685H29.702H29.7354H29.7689H29.8023H29.8358H29.8692H29.9027H29.9362H29.9696H30.0031H30.0365H30.07H30.1034H30.1369H30.1703H30.2038H30.2372H30.2707H30.3041H30.3376H30.371H30.4045H30.4379H30.4714H30.5048H30.5383H30.5717H30.6052H30.6386H30.6721H30.7055H30.739H30.7724H30.8059H30.8394H30.8728H30.9063H30.9397H30.9732H31.0066H31.0401H31.0735H31.107H31.1404H31.1739H31.2073H31.2408H31.2742H31.3077H31.3411H31.3746H31.408H31.4415H31.4749H31.5084H31.5418H31.5753H31.6087H31.6422H31.6756H31.7091H31.7425H31.776H31.8095H31.8429H31.8764H31.9098H31.9433H31.9767H32.0102H32.0436H32.0771H32.1105H32.144H32.1774H32.2109H32.2443H32.2778H32.3112H32.3447H32.3781H32.4116H32.445H32.4785H32.5119H32.5454H32.5788H32.6123H32.6457H32.6792H32.7127H32.7461H32.7796H32.813H32.8465H32.8799H32.9134H32.9468H32.9803H33.0137V24.7478H32.9803H32.9468H32.9134H32.8799H32.8465H32.813H32.7796H32.7461H32.7127H32.6792H32.6457H32.6123H32.5788H32.5454H32.5119H32.4785H32.445H32.4116H32.3781H32.3447H32.3112H32.2778H32.2443H32.2109H32.1774H32.144H32.1105H32.0771H32.0436H32.0102H31.9767H31.9433H31.9098H31.8764H31.8429H31.8095H31.776H31.7425H31.7091H31.6756H31.6422H31.6087H31.5753H31.5418H31.5084H31.4749H31.4415H31.408H31.3746H31.3411H31.3077H31.2742H31.2408H31.2073H31.1739H31.1404H31.107H31.0735H31.0401H31.0066H30.9732H30.9397H30.9063H30.8728H30.8394H30.8059H30.7724H30.739H30.7055H30.6721H30.6386H30.6052H30.5717H30.5383H30.5048H30.4714H30.4379H30.4045H30.371H30.3376H30.3041H30.2707H30.2372H30.2038H30.1703H30.1369H30.1034H30.07H30.0365H30.0031H29.9696H29.9362H29.9027H29.8692H29.8358H29.8023H29.7689H29.7354H29.702H29.6685H29.6351H29.6016H29.5682H29.5347H29.5013H29.4678H29.4344H29.4009H29.3675H29.334H29.3006H29.2671H29.2337H29.2002H29.1668H29.1333H29.0999H29.0664H29.033H28.9995H28.9661H28.9326H28.8991H28.8657H28.8322H28.7988H28.7653H28.7319H28.6984H28.665H28.6315H28.5981H28.5646H28.5312H28.4977H28.4643H28.4308H28.3974H28.3639H28.3305H28.297H28.2636H28.2301H28.1967H28.1632H28.1298H28.0963H28.0629H28.0294H27.996H27.9625H27.929H27.8956H27.8621H27.8287H27.7952H27.7618H27.7283H27.6949H27.6614H27.628H27.5945H27.5611H27.5276H27.4942H27.4607H27.4273H27.3938H27.3604H27.3269H27.2935H27.26H27.2266H27.1931H27.1597H27.1262H27.0928H27.0593H27.0258H26.9924H26.9589H26.9255H26.892H26.8586H26.8251H26.7917H26.7582H26.7248H26.6913H26.6579H26.6244H26.591H26.5575H26.5241H26.4906H26.4572H26.4237H26.3903H26.3568H26.3234H26.2899H26.2565H26.223H26.1896H26.1561H26.1227H26.0892H26.0557H26.0223H25.9888H25.9554H25.9219H25.8885H25.855H25.8216H25.7881H25.7547H25.7212H25.6878H25.6543H25.6209H25.5874H25.554H25.5205H25.4871H25.4536H25.4202H25.3867H25.3533H25.3198H25.2864H25.2529H25.2195H25.186H25.1525H25.1191H25.0856H25.0522H25.0187H24.9853H24.9518H24.9184H24.8849H24.8515H24.818H24.7846H24.7511H24.7177H24.6842H24.6508H24.6173H24.5839H24.5504H24.517H24.4835H24.4501H24.4166H24.3832H24.3497H24.3163H24.2828H24.2494H24.2159H24.1824H24.149H24.1155H24.0821H24.0486H24.0152H23.9817H23.9483H23.9148H23.8814H23.8479H23.8145H23.781H23.7476H23.7141H23.6807H23.6472H23.6138H23.5803H23.5469H23.5134H23.48H23.4465H23.4131H23.3796H23.3462H23.3127H23.2793H23.2458H23.2123H23.1789H23.1454H23.112H23.0785H23.0451H23.0116H22.9782H22.9447H22.9113H22.8778H22.8444H22.8109H22.7775H22.744H22.7106H22.6771H22.6437H22.6102H22.5768H22.5433H22.5099H22.4764H22.443H22.4095H22.3761H22.3426H22.3091H22.2757H22.2422H22.2088H22.1753H22.1419H22.1084H22.075H22.0415H22.0081H21.9746H21.9412H21.9077H21.8743H21.8408H21.8074H21.7739H21.7405H21.707H21.6736H21.6401H21.6067H21.5732H21.5398H21.5063H21.4729H21.4394H21.406H21.3725H21.339H21.3056H21.2721H21.2387H21.2052H21.1718H21.1383H21.1049H21.0714H21.038H21.0045H20.9711H20.9376H20.9042H20.8707H20.8373H20.8038H20.7704H20.7369H20.7035H20.67H20.6366H20.6031H20.5697H20.5362H20.5028H20.4693H20.4359H20.4024H20.3689H20.3355H20.302H20.2686H20.2351H20.2017H20.1682H20.1348H20.1013H20.0679H20.0344H20.001H19.9675H19.9341H19.9006H19.8672H19.8337H19.8003H19.7668H19.7334H19.6999H19.6665H19.633H19.5996H19.5661H19.5327H19.4992H19.4657H19.4323H19.3988H19.3654H19.3319H19.2985H19.265H19.2316H19.1981H19.1647H19.1312H19.0978H19.0643H19.0309H18.9974H18.964H18.9305H18.8971H18.8636H18.8302H18.7967H18.7633H18.7298H18.6964H18.6629H18.6295H18.596H18.5625H18.5291H18.4956H18.4622H18.4287H18.3953H18.3618H18.3284H18.2949H18.2615H18.228H18.1946H18.1611H18.1277H18.0942H18.0608H18.0273H17.9939H17.9604H17.927H17.8935H17.8601H17.8266H17.7932H17.7597H17.7263H17.6928H17.6594H17.6259H17.5924H17.559H17.5255H17.4921H17.4586H17.4252H17.3917H17.3583H17.3248H17.2914H17.2579H17.2245H17.191H17.1576H17.1241H17.0907H17.0572H17.0238H16.9903H16.9569H16.9234H16.89H16.8565H16.8231H16.7896H16.7562H16.7227H16.6893H16.6558H16.6223H16.5889H16.5554H16.522H16.4885H16.4551H16.4216H16.3882H16.3547H16.3213H16.2878H16.2544H16.2209H16.1875H16.154H16.1206H16.0871H16.0537H16.0202H15.9868H15.9533H15.9199H15.8864V27.925H16.0123ZM34.484 26.3364V26.2888V26.2411V26.1934V26.1458V26.0981V26.0505V26.0028V25.9551V25.9075V25.8598V25.8122V25.7645V25.7168V25.6692V25.6215V25.5739V25.5262V25.4785V25.4309V25.3832V25.3356V25.2879V25.2403V25.1926V25.1449V25.0973V25.0496V25.002V24.9543V24.9066V24.859V24.8113V24.7637V24.716V24.6683V24.6207V24.573V24.5254V24.4777V24.4301V24.3824V24.3347V24.2871V24.2394V24.1918V24.1441V24.0964V24.0488V24.0011V23.9535V23.9058V23.8581V23.8105V23.7628V23.7152V23.6675V23.6198V23.5722V23.5245V23.4769V23.4292V23.3816V23.3339V23.2862V23.2386V23.1909V23.1433V23.0956V23.0479V23.0003V22.9526V22.905V22.8573V22.8096V22.762V22.7143V22.6667V22.619V22.5713V22.5237V22.476V22.4284V22.3807V22.333V22.2854V22.2377V22.1901V22.1424V22.0948V22.0471V21.9994V21.9518V21.9041V21.8565V21.8088V21.7611V21.7135V21.6658V21.6182V21.5705V21.5228V21.4752V21.4275V21.3799V21.3322V21.2845V21.2369V21.1892V21.1416V21.0939V21.0463V20.9986V20.9509V20.9033V20.8556V20.808V20.7603V20.7126V20.665V20.6173V20.5697V20.522V20.4743V20.4267V20.379V20.3314V20.2837V20.236V20.1884V20.1407V20.0931V20.0454V19.9978V19.9501V19.9024V19.8548V19.8071V19.7595V19.7118V19.6641V19.6165V19.5688V19.5212V19.4735V19.4258V19.3782V19.3305V19.2829V19.2352V19.1875V19.1399V19.0922V19.0446V18.9969V18.9493V18.9016V18.8539V18.8063V18.7586V18.711V18.6633V18.6156V18.568V18.5203V18.4727V18.425V18.3773V18.3297V18.282V18.2344V18.1867V18.1391V18.0914V18.0437V17.9961V17.9484V17.9008V17.8531V17.8054V17.7578V17.7101V17.6625V17.6148V17.5671V17.5195V17.4718V17.4242V17.3765V17.3288V17.2812V17.2335V17.1859V17.1382V17.0906V17.0429V16.9952V16.9476V16.8999V16.8523V16.8046V16.7569V16.7093V16.6616V16.614V16.5663V16.5186V16.471V16.4233V16.3757V16.328V16.2803V16.2327V16.185V16.1374V16.0897V16.042V15.9944V15.9467V15.8991V15.8514V15.8038V15.7561V15.7084V15.6608V15.6131V15.5655V15.5178V15.4701V15.4225V15.3748V15.3272V15.2795V15.2318V15.1842V15.1365V15.0889V15.0412V14.9936V14.9459V14.8982V14.8506V14.8029V14.7553V14.7076V14.6599V14.6123V14.5646V14.517V14.4693V14.4216V14.374V14.3263V14.2787V14.231V14.1833V14.1357V14.088V14.0404V13.9927V13.9451V13.8974V13.8497V13.8021V13.7544V13.7068V13.6591V13.6114V13.5638V13.5161V13.4685V13.4208V13.3731V13.3255V13.2778V13.2302V13.1825V13.1348V13.0872V13.0395V12.9919V12.9442V12.8966V12.8489V12.8012V12.7536V12.7059V12.6583V12.6106V12.5629V12.5153V12.4676V12.42V12.3723V12.3246V12.277V12.2293V12.1817V12.134V12.0863V12.0387V11.991V11.9434V11.8957V11.8481V11.8004V11.7527V11.7051V11.6574V11.6098V11.5621V11.5144V11.4668V11.4191V11.3715V11.3238V11.2761V11.2285V11.1808V11.1332V11.0855V11.0378V10.9902V10.9425V10.8949V10.8472V10.7996V10.7519V10.7042V10.6566V10.6089V10.5613V10.5136V10.4659V10.4183V10.3706V10.323V10.2753V10.2276V10.18V10.1323V10.0847V10.037V9.98935V9.94169V9.89403V9.84637V9.79871V9.75105V9.70339V9.65573V9.60807V9.56041V9.51275V9.4651V9.41744V9.36978V9.32212V9.27446V9.2268V9.17914V9.13148V9.08382V9.03616V8.9885V8.94085V8.89319V8.84553V8.79787V8.75021V8.70255V8.65489V8.60723V8.55957V8.51191V8.46425V8.4166V8.36894V8.32128V8.27362V8.22596V8.1783V8.13064V8.08298V8.03532V7.98766V7.94V7.89235V7.84469V7.79703V7.74937V7.70171V7.65405V7.60639V7.55873V7.51107V7.46341V7.41576V7.3681V7.32044V7.27278V7.22512V7.17746V7.1298V7.08214V7.03448V6.98682V6.93916V6.8915V6.84385V6.79619V6.74853V6.70087V6.65321V6.60555V6.55789V6.51023V6.46257V6.41491V6.36725V6.3196V6.27194V6.22428V6.17662V6.12896V6.0813V6.03364V5.98598V5.93832V5.89066V5.843V5.79535V5.74769V5.70003V5.65237V5.60471V5.55705V5.50939V5.46173V5.41407V5.36641V5.31875V5.2711V5.22344V5.17578V5.12812V5.08046V5.0328V4.98514V4.93748V4.88982V4.84216V4.7945V4.74685V4.69919V4.65153V4.60387V4.55621V4.50855V4.46089V4.41323V4.36557V4.31791V4.27025V4.2226V4.17494V4.12728V4.07962V4.03196V3.9843V3.93664V3.88898V3.84132V3.79366V3.746V3.69835V3.65069V3.60303V3.55537V3.50771V3.46005V3.41239V3.36473V3.31707V3.26941V3.22175V3.1741V3.12644V3.07878V3.03112V2.98346V2.9358V2.88814V2.84048V2.79282V2.74516V2.6975V2.64985V2.60219V2.55453V2.50687V2.45921V2.41155V2.36389V2.31623V2.26857V2.22091V2.17325V2.1256V2.07794V2.03028V1.98262V1.93496H31.2981V1.98262V2.03028V2.07794V2.1256V2.17325V2.22091V2.26857V2.31623V2.36389V2.41155V2.45921V2.50687V2.55453V2.60219V2.64985V2.6975V2.74516V2.79282V2.84048V2.88814V2.9358V2.98346V3.03112V3.07878V3.12644V3.1741V3.22175V3.26941V3.31707V3.36473V3.41239V3.46005V3.50771V3.55537V3.60303V3.65069V3.69835V3.746V3.79366V3.84132V3.88898V3.93664V3.9843V4.03196V4.07962V4.12728V4.17494V4.2226V4.27025V4.31791V4.36557V4.41323V4.46089V4.50855V4.55621V4.60387V4.65153V4.69919V4.74685V4.7945V4.84216V4.88982V4.93748V4.98514V5.0328V5.08046V5.12812V5.17578V5.22344V5.2711V5.31875V5.36641V5.41407V5.46173V5.50939V5.55705V5.60471V5.65237V5.70003V5.74769V5.79535V5.843V5.89066V5.93832V5.98598V6.03364V6.0813V6.12896V6.17662V6.22428V6.27194V6.3196V6.36725V6.41491V6.46257V6.51023V6.55789V6.60555V6.65321V6.70087V6.74853V6.79619V6.84385V6.8915V6.93916V6.98682V7.03448V7.08214V7.1298V7.17746V7.22512V7.27278V7.32044V7.3681V7.41576V7.46341V7.51107V7.55873V7.60639V7.65405V7.70171V7.74937V7.79703V7.84469V7.89235V7.94V7.98766V8.03532V8.08298V8.13064V8.1783V8.22596V8.27362V8.32128V8.36894V8.4166V8.46425V8.51191V8.55957V8.60723V8.65489V8.70255V8.75021V8.79787V8.84553V8.89319V8.94085V8.9885V9.03616V9.08382V9.13148V9.17914V9.2268V9.27446V9.32212V9.36978V9.41744V9.4651V9.51275V9.56041V9.60807V9.65573V9.70339V9.75105V9.79871V9.84637V9.89403V9.94169V9.98935V10.037V10.0847V10.1323V10.18V10.2276V10.2753V10.323V10.3706V10.4183V10.4659V10.5136V10.5613V10.6089V10.6566V10.7042V10.7519V10.7996V10.8472V10.8949V10.9425V10.9902V11.0378V11.0855V11.1332V11.1808V11.2285V11.2761V11.3238V11.3715V11.4191V11.4668V11.5144V11.5621V11.6098V11.6574V11.7051V11.7527V11.8004V11.8481V11.8957V11.9434V11.991V12.0387V12.0863V12.134V12.1817V12.2293V12.277V12.3246V12.3723V12.42V12.4676V12.5153V12.5629V12.6106V12.6583V12.7059V12.7536V12.8012V12.8489V12.8966V12.9442V12.9919V13.0395V13.0872V13.1348V13.1825V13.2302V13.2778V13.3255V13.3731V13.4208V13.4685V13.5161V13.5638V13.6114V13.6591V13.7068V13.7544V13.8021V13.8497V13.8974V13.9451V13.9927V14.0404V14.088V14.1357V14.1833V14.231V14.2787V14.3263V14.374V14.4216V14.4693V14.517V14.5646V14.6123V14.6599V14.7076V14.7553V14.8029V14.8506V14.8982V14.9459V14.9936V15.0412V15.0889V15.1365V15.1842V15.2318V15.2795V15.3272V15.3748V15.4225V15.4701V15.5178V15.5655V15.6131V15.6608V15.7084V15.7561V15.8038V15.8514V15.8991V15.9467V15.9944V16.042V16.0897V16.1374V16.185V16.2327V16.2803V16.328V16.3757V16.4233V16.471V16.5186V16.5663V16.614V16.6616V16.7093V16.7569V16.8046V16.8523V16.8999V16.9476V16.9952V17.0429V17.0906V17.1382V17.1859V17.2335V17.2812V17.3288V17.3765V17.4242V17.4718V17.5195V17.5671V17.6148V17.6625V17.7101V17.7578V17.8054V17.8531V17.9008V17.9484V17.9961V18.0437V18.0914V18.1391V18.1867V18.2344V18.282V18.3297V18.3773V18.425V18.4727V18.5203V18.568V18.6156V18.6633V18.711V18.7586V18.8063V18.8539V18.9016V18.9493V18.9969V19.0446V19.0922V19.1399V19.1875V19.2352V19.2829V19.3305V19.3782V19.4258V19.4735V19.5212V19.5688V19.6165V19.6641V19.7118V19.7595V19.8071V19.8548V19.9024V19.9501V19.9978V20.0454V20.0931V20.1407V20.1884V20.236V20.2837V20.3314V20.379V20.4267V20.4743V20.522V20.5697V20.6173V20.665V20.7126V20.7603V20.808V20.8556V20.9033V20.9509V20.9986V21.0463V21.0939V21.1416V21.1892V21.2369V21.2845V21.3322V21.3799V21.4275V21.4752V21.5228V21.5705V21.6182V21.6658V21.7135V21.7611V21.8088V21.8565V21.9041V21.9518V21.9994V22.0471V22.0948V22.1424V22.1901V22.2377V22.2854V22.333V22.3807V22.4284V22.476V22.5237V22.5713V22.619V22.6667V22.7143V22.762V22.8096V22.8573V22.905V22.9526V23.0003V23.0479V23.0956V23.1433V23.1909V23.2386V23.2862V23.3339V23.3816V23.4292V23.4769V23.5245V23.5722V23.6198V23.6675V23.7152V23.7628V23.8105V23.8581V23.9058V23.9535V24.0011V24.0488V24.0964V24.1441V24.1918V24.2394V24.2871V24.3347V24.3824V24.4301V24.4777V24.5254V24.573V24.6207V24.6683V24.716V24.7637V24.8113V24.859V24.9066V24.9543V25.002V25.0496V25.0973V25.1449V25.1926V25.2403V25.2879V25.3356V25.3832V25.4309V25.4785V25.5262V25.5739V25.6215V25.6692V25.7168V25.7645V25.8122V25.8598V25.9075V25.9551V26.0028V26.0505V26.0981V26.1458V26.1934V26.2411V26.2888V26.3364H34.484ZM32.8911 0.447995H32.8496H32.8082H32.7668H32.7254H32.684H32.6426H32.6011H32.5597H32.5183H32.4769H32.4355H32.3941H32.3526H32.3112H32.2698H32.2284H32.187H32.1456H32.1041H32.0627H32.0213H31.9799H31.9385H31.8971H31.8588H31.8174H31.776H31.7346H31.6932H31.6518H31.6103H31.5689H31.5275H31.4861H31.4447H31.4033H31.3618H31.3204H31.279H31.2376H31.1962H31.1548H31.1133H31.0719H31.0305H30.9891H30.9477H30.9063H30.8648H30.8234H30.782H30.7406H30.6992H30.6578H30.6163H30.5749H30.5335H30.4921H30.4507H30.4093H30.3678H30.3264H30.285H30.2436H30.2022H30.1608H30.1193H30.0779H30.0365H29.9951H29.9537H29.9123H29.8708H29.8294H29.788H29.7466H29.7052H29.6638H29.6223H29.5809H29.5395H29.4981H29.4567H29.4153H29.3738H29.3324H29.291H29.2496H29.2082H29.1668H29.1253H29.0839H29.0425H29.0011H28.9597H28.9183H28.8768H28.8354H28.794H28.7526H28.7112H28.6698H28.6283H28.5869H28.5455H28.5041H28.4627H28.4213H28.3799H28.3384H28.297H28.2556H28.2142H28.1728H28.1314H28.0899H28.0485H28.0071H27.9657H27.9243H27.8829H27.8414H27.8H27.7586H27.7172H27.6758H27.6344H27.5929H27.5515H27.5101H27.4687H27.4273H27.3859H27.3444H27.303H27.2616H27.2202H27.1788H27.1374H27.0959H27.0545H27.0131H26.9717H26.9303H26.8889H26.8474H26.806H26.7646H26.7232H26.6818H26.6404H26.5989H26.5575H26.5161H26.4747H26.4333H26.3919H26.3504H26.309H26.2676H26.2262H26.1848H26.1434H26.1019H26.0605H26.0191H25.9777H25.9363H25.8949H25.8534H25.812H25.7706H25.7292H25.6878H25.6464H25.6049H25.5635H25.5221H25.4807H25.4393H25.3979H25.3564H25.315H25.2736H25.2322H25.1908H25.1494H25.1079H25.0665H25.0251H24.9837H24.9423H24.9009H24.8594H24.818H24.7766H24.7352H24.6938H24.6524H24.611H24.5695H24.5281H24.4867H24.4453H24.4039H24.3625H24.321H24.2796H24.2382H24.1968H24.1554H24.114H24.0725H24.0311H23.9897H23.9483H23.9069H23.8655H23.824H23.7826H23.7412H23.6998H23.6584H23.617H23.5755H23.5341H23.4927H23.4513H23.4099H23.3685H23.327H23.2856H23.2442H23.2028H23.1614H23.12H23.0785H23.0371H22.9957H22.9543H22.9129H22.8715H22.83H22.7886H22.7472H22.7058H22.6644H22.623H22.5815H22.5401H22.4987H22.4573H22.4159H22.3745H22.333H22.2916H22.2502H22.2088H22.1674H22.126H22.0845H22.0431H22.0017H21.9603H21.9189H21.8775H21.836H21.7946H21.7532H21.7118H21.6704H21.629H21.5875H21.5461H21.5047H21.4633H21.4219H21.3805H21.339H21.2976H21.2562H21.2148H21.1734H21.132H21.0905H21.0491H21.0077H20.9663H20.9249H20.8835H20.842H20.8006H20.7592H20.7178H20.6764H20.635H20.5936H20.5521H20.5107H20.4693H20.4279H20.3865H20.3451H20.3036H20.2622H20.2208H20.1794H20.138H20.0966H20.0551H20.0137H19.9723H19.9309H19.8895H19.8481H19.8066H19.7652H19.7238H19.6824H19.641H19.5996H19.5581H19.5167H19.4753H19.4339H19.3925H19.3511H19.3096H19.2682H19.2268H19.1854H19.144H19.1026H19.0611H19.0197H18.9783H18.9369H18.8955H18.8541H18.8126H18.7712H18.7298H18.6884H18.647H18.6056H18.5641H18.5227H18.4813H18.4399H18.3985H18.3571H18.3156H18.2742H18.2328H18.1914H18.15H18.1086H18.0671H18.0257H17.9843H17.9429H17.9015H17.8601H17.8186H17.7772H17.7358H17.6944H17.653H17.6116H17.5701H17.5287H17.5224H17.4809H17.4395H17.3981H17.3567H17.3153H17.2739H17.2324H17.191H17.1496H17.1082H17.0668H17.0254H16.9839H16.9425H16.9011H16.8597H16.8183H16.7769H16.7354H16.694H16.6526H16.6112H16.5698H16.5284H16.4869H16.4455H16.4041H16.3627H16.3213H16.2799H16.2384H16.197H16.1556H16.1142H16.0728H16.0314H15.9899H15.9485H15.9071H15.8657H15.8243H15.7829H15.7415H15.7H15.6586H15.6172H15.5758H15.5344H15.493H15.4515H15.4101H15.3687H15.3273H15.2922H15.2508H15.2094H15.168H15.1266H15.0852H15.0437H15.0023H14.9609H14.9195H14.8781H14.8367H14.7952H14.7538H14.7124H14.671H14.6296H14.5882H14.5467H14.5053H14.4639H14.4225H14.3811H14.3397H14.2982H14.2568H14.2154H14.1772H14.1358H14.0943H14.0529H14.0115H13.9701H13.9287H13.8873H13.8458H13.8044H13.763H13.7216H13.6802H13.6388H13.5974H13.5559H13.5145H13.4731H13.4317H13.3903H13.3489H13.3074H13.266H13.2246H13.1832H13.1418H13.1004H13.0589H13.0175H12.9761H12.9347H12.8933H12.8519H12.8104H12.769H12.7276H12.6862H12.6448H12.6034H12.5619H12.5205H12.4791H12.4377H12.3963H12.3549H12.3134H12.272H12.2306H12.1892H12.1478H12.1064H12.0649H12.0235H11.9821H11.9407H11.8993H11.8579H11.8164H11.775H11.7336V3.62527H11.775H11.8164H11.8579H11.8993H11.9407H11.9821H12.0235H12.0649H12.1064H12.1478H12.1892H12.2306H12.272H12.3134H12.3549H12.3963H12.4377H12.4791H12.5205H12.5619H12.6034H12.6448H12.6862H12.7276H12.769H12.8104H12.8519H12.8933H12.9347H12.9761H13.0175H13.0589H13.1004H13.1418H13.1832H13.2246H13.266H13.3074H13.3489H13.3903H13.4317H13.4731H13.5145H13.5559H13.5974H13.6388H13.6802H13.7216H13.763H13.8044H13.8458H13.8873H13.9287H13.9701H14.0115H14.0529H14.0943H14.1358H14.1772H14.2186H14.26H14.3014H14.3428H14.3843H14.4257H14.4671H14.5085H14.5499H14.5913H14.6328H14.6742H14.7156H14.757H14.7984H14.8398H14.8813H14.9227H14.9641H15.0055H15.0469H15.0883H15.1298H15.1712H15.2126H15.254H15.2954H15.3368H15.3783H15.4197H15.4611H15.5025H15.5439H15.5853H15.6268H15.6682H15.7096H15.751H15.7924H15.8338H15.8753H15.9167H15.9581H15.9995H16.0409H16.0823H16.1238H16.1652H16.2066H16.248H16.2894H16.3308H16.3723H16.4137H16.4551H16.4965H16.5379H16.5793H16.6208H16.6622H16.7036H16.745H16.7864H16.8278H16.8693H16.9107H16.9521H16.9935H17.0349H17.0763H17.1178H17.1592H17.2006H17.242H17.2834H17.3248H17.3663H17.4077H17.4491H17.4905H17.5224H17.5638H17.6052H17.6466H17.688H17.7294H17.7709H17.8123H17.8537H17.8951H17.9365H17.9779H18.0194H18.0608H18.1022H18.1436H18.185H18.2264H18.2679H18.3093H18.3507H18.3921H18.4335H18.4749H18.5164H18.5578H18.5992H18.6406H18.682H18.7234H18.7649H18.8063H18.8477H18.8891H18.9305H18.9719H19.0134H19.0548H19.0962H19.1376H19.179H19.2204H19.2619H19.3033H19.3447H19.3861H19.4275H19.4689H19.5104H19.5518H19.5932H19.6346H19.676H19.7174H19.7589H19.8003H19.8417H19.8831H19.9245H19.9659H20.0073H20.0488H20.0902H20.1316H20.173H20.2144H20.2558H20.2973H20.3387H20.3801H20.4215H20.4629H20.5043H20.5458H20.5872H20.6286H20.67H20.7114H20.7528H20.7943H20.8357H20.8771H20.9185H20.9599H21.0013H21.0428H21.0842H21.1256H21.167H21.2084H21.2498H21.2913H21.3327H21.3741H21.4155H21.4569H21.4983H21.5398H21.5812H21.6226H21.664H21.7054H21.7468H21.7883H21.8297H21.8711H21.9125H21.9539H21.9953H22.0368H22.0782H22.1196H22.161H22.2024H22.2438H22.2853H22.3267H22.3681H22.4095H22.4509H22.4923H22.5338H22.5752H22.6166H22.658H22.6994H22.7408H22.7823H22.8237H22.8651H22.9065H22.9479H22.9893H23.0308H23.0722H23.1136H23.155H23.1964H23.2378H23.2793H23.3207H23.3621H23.4035H23.4449H23.4863H23.5278H23.5692H23.6106H23.652H23.6934H23.7348H23.7762H23.8177H23.8591H23.9005H23.9419H23.9833H24.0247H24.0662H24.1076H24.149H24.1904H24.2318H24.2732H24.3147H24.3561H24.3975H24.4389H24.4803H24.5217H24.5632H24.6046H24.646H24.6874H24.7288H24.7702H24.8117H24.8531H24.8945H24.9359H24.9773H25.0187H25.0602H25.1016H25.143H25.1844H25.2258H25.2672H25.3087H25.3501H25.3915H25.4329H25.4743H25.5157H25.5572H25.5986H25.64H25.6814H25.7228H25.7642H25.8057H25.8471H25.8885H25.9299H25.9713H26.0127H26.0542H26.0956H26.137H26.1784H26.2198H26.2612H26.3027H26.3441H26.3855H26.4269H26.4683H26.5097H26.5512H26.5926H26.634H26.6754H26.7168H26.7582H26.7997H26.8411H26.8825H26.9239H26.9653H27.0067H27.0482H27.0896H27.131H27.1724H27.2138H27.2552H27.2966H27.3381H27.3795H27.4209H27.4623H27.5037H27.5451H27.5866H27.628H27.6694H27.7108H27.7522H27.7936H27.8351H27.8765H27.9179H27.9593H28.0007H28.0421H28.0836H28.125H28.1664H28.2078H28.2492H28.2906H28.3321H28.3735H28.4149H28.4563H28.4977H28.5391H28.5806H28.622H28.6634H28.7048H28.7462H28.7876H28.8291H28.8705H28.9119H28.9533H28.9947H29.0361H29.0776H29.119H29.1604H29.2018H29.2432H29.2846H29.3261H29.3675H29.4089H29.4503H29.4917H29.5331H29.5746H29.616H29.6574H29.6988H29.7402H29.7816H29.8231H29.8645H29.9059H29.9473H29.9887H30.0301H30.0716H30.113H30.1544H30.1958H30.2372H30.2786H30.3201H30.3615H30.4029H30.4443H30.4857H30.5271H30.5686H30.61H30.6514H30.6928H30.7342H30.7756H30.8171H30.8585H30.8999H30.9413H30.9827H31.0241H31.0656H31.107H31.1484H31.1898H31.2312H31.2726H31.3141H31.3555H31.3969H31.4383H31.4797H31.5211H31.5625H31.604H31.6454H31.6868H31.7282H31.7696H31.811H31.8525H31.8588H31.9002H31.9417H31.9831H32.0245H32.0659H32.1073H32.1488H32.1902H32.2316H32.273H32.3144H32.3558H32.3972H32.4387H32.4801H32.5215H32.5629H32.6043H32.6457H32.6872H32.7286H32.77H32.8114H32.8528H32.8942V0.447995H32.8911ZM10.1454 2.03663V2.07317V2.10971V2.14625V2.18279V2.21933V2.25586V2.2924V2.32894V2.36548V2.40202V2.43856V2.4751V2.51163V2.54817V2.58471V2.62125V2.65779V2.69433V2.73087V2.7674V2.80394V2.84048V2.87702V2.91356V2.9501V2.98664V3.02318V3.05971V3.09625V3.13279V3.16933V3.20587V3.24241V3.27895V3.31548V3.35202V3.38856V3.4251V3.46164V3.49818V3.53472V3.57125V3.60779V3.64433V3.68087V3.71741V3.75395V3.79049V3.82702V3.86356V3.9001V3.93664V3.97318V4.00972V4.04626V4.0828V4.11933V4.15587V4.19241V4.22895V4.26549V4.30203V4.33857V4.3751V4.41164V4.44818V4.48472V4.52126V4.5578V4.59434V4.63088V4.66741V4.70395V4.74049V4.77703V4.81357V4.85011V4.88665V4.92318V4.95972V4.99626V5.0328V5.06934V5.10588V5.14242V5.17895V5.21549V5.25203V5.28857V5.32511V5.36165V5.39819V5.43473V5.47126V5.5078V5.54434V5.58088V5.61742V5.65396V5.6905V5.72703V5.76357V5.80011V5.83665V5.87319V5.90973V5.94627V5.9828V6.01934V6.05588V6.09242V6.12896V6.1655V6.20204V6.23857V6.27511V6.31165V6.34819V6.38473V6.42127V6.45781V6.49435V6.53088V6.56742V6.60396V6.6405V6.67704V6.71358V6.75012V6.78665V6.82319V6.85973V6.89627V6.93281V6.96935V7.00589V7.04243V7.07896V7.1155V7.15204V7.18858V7.22512V7.26166V7.2982V7.33473V7.37127V7.40781V7.44435V7.48089V7.51743V7.55397V7.5905V7.62704V7.66358V7.70012V7.73666V7.7732V7.80974V7.84628V7.88281V7.91935V7.95589V7.99243V8.02897V8.06551V8.10205V8.13858V8.17512V8.21166V8.2482V8.28474V8.32128V8.35782V8.39435V8.43089V8.46743V8.50397V8.54051V8.57705V8.61359V8.65013V8.68666V8.7232V8.75974V8.79628V8.83282V8.86936V8.9059V8.94243V8.97897V9.01551V9.05205V9.08859V9.12513V9.16167V9.1982V9.23474V9.27128V9.30782V9.34436V9.3809V9.41744V9.45398V9.49051V9.52705V9.56359V9.60013V9.63667V9.67321V9.70975V9.74628V9.78282V9.81936V9.8559V9.89244V9.92898V9.96552V10.0021V10.0386V10.0751V10.1117V10.1482V10.1847V10.2213V10.2578V10.2944V10.3309V10.3674V10.404V10.4405V10.4771V10.5136V10.5501V10.5867V10.6232V10.6597V10.6963V10.7328V10.7694V10.8059V10.8424V10.879V10.9155V10.9521V10.9886V11.0251V11.0617V11.0982V11.1348V11.1713V11.2078V11.2444V11.2809V11.3174V11.354V11.3905H13.3313V11.354V11.3174V11.2809V11.2444V11.2078V11.1713V11.1348V11.0982V11.0617V11.0251V10.9886V10.9521V10.9155V10.879V10.8424V10.8059V10.7694V10.7328V10.6963V10.6597V10.6232V10.5867V10.5501V10.5136V10.4771V10.4405V10.404V10.3674V10.3309V10.2944V10.2578V10.2213V10.1847V10.1482V10.1117V10.0751V10.0386V10.0021V9.96552V9.92898V9.89244V9.8559V9.81936V9.78282V9.74628V9.69068V9.65414V9.6176V9.58107V9.54453V9.50799V9.47145V9.43491V9.39837V9.36183V9.3253V9.28876V9.25222V9.21568V9.17914V9.1426V9.10606V9.06953V9.03299V8.99645V8.95991V8.92337V8.88683V8.85029V8.81375V8.77722V8.74068V8.70414V8.6676V8.63106V8.59452V8.55798V8.52145V8.48491V8.44837V8.41183V8.37529V8.33875V8.30221V8.26568V8.22914V8.1926V8.15606V8.11952V8.08298V8.04644V8.0099V7.97337V7.93683V7.90029V7.86375V7.82721V7.79067V7.75413V7.7176V7.68106V7.64452V7.60798V7.57144V7.5349V7.49836V7.46183V7.42529V7.38875V7.35221V7.31567V7.27913V7.24259V7.20605V7.16952V7.13298V7.09644V7.0599V7.02336V6.98682V6.95028V6.91375V6.87721V6.84067V6.80413V6.76759V6.73105V6.69451V6.65798V6.62144V6.5849V6.54836V6.51182V6.47528V6.43874V6.4022V6.36567V6.32913V6.29259V6.25605V6.21951V6.18297V6.14643V6.1099V6.07336V6.03682V6.00028V5.96374V5.9272V5.89066V5.85413V5.81759V5.78105V5.74451V5.70797V5.67143V5.63489V5.59835V5.56182V5.52528V5.48874V5.4522V5.41566V5.37912V5.34258V5.30605V5.26951V5.23297V5.19643V5.15989V5.12335V5.08681V5.05027V5.01374V4.9772V4.94066V4.92477V4.88823V4.8517V4.81516V4.77862V4.74208V4.70554V4.669V4.63246V4.59592V4.55939V4.52285V4.48631V4.44977V4.41323V4.37669V4.34015V4.30362V4.26708V4.23054V4.194V4.15746V4.12092V4.08438V4.04785V4.01131V3.97477V3.93823V3.90169V3.86515V3.82861V3.79208V3.75554V3.719V3.68246V3.64592V3.60938V3.57284V3.5363V3.49977V3.46323V3.42669V3.39015V3.35361V3.31707V3.28053V3.244V3.20746V3.17092V3.13438V3.09784V3.0613V3.02476V2.98823V2.95169V2.91515V2.87861V2.84207V2.80553V2.76899V2.73245V2.69592V2.65938V2.62284V2.5863V2.54976V2.51322V2.47668V2.44015V2.40361V2.36707V2.33053V2.29399V2.25745V2.22091V2.18438V2.14784V2.1113V2.07476V2.03822H10.1454V2.03663ZM11.7384 9.7717H11.7065H11.6747H11.6428H11.611H11.5791H11.5472H11.5154H11.4835H11.4517H11.4198H11.3879H11.3545H11.3226L11.2956 12.949H11.3274H11.3593H11.3911H11.423H11.4548H11.4867H11.5186H11.5504H11.5823H11.6141H11.646H11.6794H11.7113L11.7384 9.7717ZM12.8853 11.3603V11.3238V11.2873V11.2507V11.2142V11.1776V11.1411V11.1046V11.068V11.0315V10.995V10.9584V10.9219V10.8853V10.8488V10.8123V10.7757V10.7392V10.7026V10.6661V10.6296V10.593V10.5565V10.52V10.4834V10.4469V10.4103V10.3738V10.3373V10.3007V10.2642V10.2276V10.1911V10.1546V10.118V10.0815V10.0449V10.0084V9.97187V9.93533V9.89879V9.86226V9.82572V9.78918V9.75264V9.7161V9.67956V9.64302V9.60648V9.56995V9.53341V9.49687V9.46033V9.42379V9.38725V9.35071V9.31417V9.27764V9.2411V9.20456V9.16802V9.13148V9.09494V9.05523V9.01869V8.98215V8.94561V8.90907V8.87253V8.836V8.79946V8.76292V8.72638V8.68984V8.6533V8.61676V8.58022V8.54369V8.50715V8.47061V8.43407V8.39753V8.36099V8.32445V8.28792V8.25138V8.21484V8.1783V8.14176V8.10522V8.06868V8.03215V7.99561V7.95907V7.92253V7.88599V7.84945V7.81291V7.77638V7.73984V7.7033V7.66676V7.63022V7.59368V7.55714V7.52061V7.48407V7.44753V7.41099V7.37445V7.33791V7.30137V7.26483V7.2283V7.19176V7.15522V7.11868V7.08214V7.0456V7.00906V6.97253V6.93599V6.89945V6.86291V6.83114V6.7946V6.75806V6.72152V6.68498V6.64844V6.61191V6.57537V6.53883V6.50229V6.46575V6.42921V6.39267V6.35613V6.3196V6.28306V6.24652V6.20998V6.17344V6.1369V6.10036V6.06383V6.02729V5.99075V5.95421V5.91767V5.88113V5.84459V5.80805V5.77152V5.73498V5.69844V5.6619V5.62536V5.58882V5.55228V5.51575V5.47921V5.44267V5.40613V5.36959V5.33305V5.29651V5.25998V5.22344V5.1869V5.15036V5.11382V5.07728V5.04074V5.0042V4.96767V4.93113V4.89459V4.85805V4.82151V4.78497V4.74843V4.7119V4.67536V4.63882V4.60228V4.56574V4.5292V4.49266V4.45613V4.41959V4.38305V4.34651V4.30997V4.27343V4.23689V4.20035V4.16382V4.12728V4.09074V4.0542V4.01766V3.98112V3.94458V3.90805V3.87151V3.83497V3.79843V3.76189V3.72535V3.68881V3.65228V3.61574V3.5792V3.54266V3.50612V3.46958V3.43304V3.3965V3.35997V3.32343V3.28689V3.25035V3.21381V3.17727V3.14073V3.1042V3.06766V3.03112V2.99458V2.95804V2.9215V2.88496V2.84843V2.81189V2.77535V2.73881V2.70227V2.66573V2.62919V2.59265V2.55612V2.51958V2.48304V2.4465V2.40996V2.37342V2.33688V2.30035V2.26381V2.22727V2.19073V2.15419V2.11765V2.08111V2.04457V2.00804H9.69942V2.04457V2.08111V2.11765V2.15419V2.19073V2.22727V2.26381V2.30035V2.33688V2.37342V2.40996V2.4465V2.48304V2.51958V2.55612V2.59265V2.62919V2.66573V2.70227V2.73881V2.77535V2.81189V2.84843V2.88496V2.9215V2.95804V2.99458V3.03112V3.06766V3.1042V3.14073V3.17727V3.21381V3.25035V3.28689V3.32343V3.35997V3.3965V3.43304V3.46958V3.50612V3.54266V3.5792V3.61574V3.65228V3.68881V3.72535V3.76189V3.79843V3.83497V3.87151V3.90805V3.94458V3.98112V4.01766V4.0542V4.09074V4.12728V4.16382V4.20035V4.23689V4.27343V4.30997V4.34651V4.38305V4.41959V4.45613V4.49266V4.5292V4.56574V4.60228V4.63882V4.67536V4.7119V4.74843V4.78497V4.82151V4.85805V4.89459V4.93113V4.96767V5.0042V5.04074V5.07728V5.11382V5.15036V5.1869V5.22344V5.25998V5.29651V5.33305V5.36959V5.40613V5.44267V5.47921V5.51575V5.55228V5.58882V5.62536V5.6619V5.69844V5.73498V5.77152V5.80805V5.84459V5.88113V5.91767V5.95421V5.99075V6.02729V6.06383V6.10036V6.1369V6.17344V6.20998V6.24652V6.28306V6.3196V6.35613V6.39267V6.42921V6.46575V6.50229V6.53883V6.57537V6.61191V6.64844V6.68498V6.72152V6.75806V6.7946V6.83114V6.86768V6.90421V6.94075V6.97729V7.01383V7.05037V7.08691V7.12345V7.15998V7.19652V7.23306V7.2696V7.30614V7.34268V7.37922V7.41576V7.45229V7.48883V7.52537V7.56191V7.59845V7.63499V7.67153V7.70806V7.7446V7.78114V7.81768V7.85422V7.89076V7.9273V7.96383V8.00037V8.03691V8.07345V8.10999V8.14653V8.18307V8.2196V8.25614V8.29268V8.32922V8.36576V8.4023V8.43884V8.47538V8.51191V8.54845V8.58499V8.62153V8.65807V8.69461V8.73114V8.76768V8.80422V8.84076V8.8773V8.91384V8.95038V8.98692V9.02345V9.05999V9.09653V9.13307V9.16961V9.20615V9.24269V9.27923V9.31576V9.3523V9.38884V9.42538V9.46192V9.49846V9.535V9.57153V9.60807V9.64461V9.68115V9.71769V9.75423V9.79077V9.8273V9.86384V9.90038V9.93692V9.97346V10.01V10.0465V10.0831V10.1196V10.1562V10.1927V10.2292V10.2658V10.3023V10.3388V10.3754V10.4119V10.4485V10.485V10.5215V10.5581V10.5946V10.6312V10.6677V10.7042V10.7408V10.7773V10.8138V10.8504V10.8869V10.9235V10.96V10.9965V11.0331V11.0696V11.1062V11.1427V11.1792V11.2158V11.2523V11.2888V11.3254V11.3603H12.8853ZM11.2924 0.447995H6.66646H6.62982H6.59319H6.55655H6.51991H6.48327H6.44664H6.41H6.37336H6.33672H6.30008H6.2284H6.19176H6.15513H6.11849H6.08185H6.05318H6.01654H5.9799H5.94327H5.90663H5.86999H5.83335H5.79671H5.65176H5.61512H5.57848H5.54184H5.50521H5.46857H5.43193H5.39529H5.35866H5.32202H5.28538H5.24874H5.21211H5.06715H5.03051H4.99387H4.95723H4.9206H4.88396H4.84732H4.81068H4.77405H4.73741H4.70077H4.66413H4.6275H4.48254H4.4459H4.40926H4.37262H4.33599H3.17951H3.14287H3.10624H3.0696H3.03296H2.99632H2.95969H2.92305H2.88641H2.84977H2.81314H2.7765H2.73986H2.70322H2.66658H2.62995H2.59331H2.55667H2.52003H2.4834H2.44676H2.41012H2.37348H2.33685H2.30021H2.26357H2.22693H2.19029H2.15366H2.11702H2.08038H2.04374H2.00711V3.62527H2.04374H2.08038H2.11702H2.15366H2.19029H2.22693H2.26357H2.30021H2.33685H2.37348H2.41012H2.44676H2.4834H2.52003H2.55667H2.59331H2.62995H2.66658H2.70322H2.73986H2.7765H2.81314H2.84977H2.88641H2.92305H2.95969H2.99632H3.03296H3.0696H3.10624H3.14287H3.17951H3.21615H3.25279H3.28942H3.32606H3.3627H3.39934H3.43598H3.47261H3.50925H3.54589H3.58253H3.61916H3.6558H3.69244H3.72908H3.76571H3.80235H3.83899H3.87563H3.91227C4.04129 3.62527 3.85651 3.62527 3.98395 3.62527H4.02059H4.05722H4.09386H4.1305H4.16714H4.20377H4.24041H4.27705H4.31369H4.35032H4.38696H4.4236H4.46024H4.49687C4.6259 3.62527 4.44112 3.62527 4.56856 3.62527H4.60519H4.64183H4.67847H4.71511H4.75175H4.78838H4.82502H4.86166H4.8983H4.93493H4.97157H5.00821H5.04485H5.08148H5.11812H5.15476H5.1914H5.22803H5.26467H5.30131H5.33795H5.37459H5.41122H5.44786H5.4845H5.52114H5.55777H5.59441H5.63105H5.66769H5.70432C5.83335 3.62527 5.61193 3.62527 5.74096 3.62527H5.7776H5.81424H5.85088H5.88751H5.92415H5.96079H5.99743H6.03406H6.0707H6.10734H6.14398H6.18061H6.21725H6.25389C6.38292 3.62527 6.19814 3.62527 6.32557 3.62527H6.36221H6.39885H6.43548H6.47212H6.50876H6.5454H6.58204H6.61867H6.65531H6.69195H6.72859H6.76522H6.80186H6.8385H6.87514H6.91177H6.94841H6.98505H7.02169H7.05833C7.18735 3.62527 7.00257 3.62527 7.13001 3.62527H7.16665H7.20328H7.23992H7.27656H7.3132H7.34983H7.38647H7.42311H7.45975H7.49638H7.53302H7.56966H7.6063H7.64293H7.67957H7.71621H7.75285H7.78948H7.82612H7.86276H7.8994H7.93604H7.97267H7.96471H8.00135H8.03798H8.07462H8.11126H8.1479H8.18454H8.22117H8.25781H8.29445H8.33109H8.36772H8.40436H8.441H8.47764H8.51427H8.55091H8.58755H8.62419H8.66082H8.69746H8.7341H8.77074H8.80737H8.84401H8.88065H8.91729H8.95393H8.99056H9.0272H9.06384H9.10048H9.13711H9.17375H9.21039H9.24703H9.28366H9.3203H9.35694C9.48597 3.62527 9.30119 3.62527 9.42862 3.62527H9.46526H9.5019H9.53854H9.57517H9.61181H9.64845H9.68509H9.72172H9.75836H9.795H9.83164H9.86827H9.90491H9.94155C10.0706 3.62527 9.8858 3.62527 10.0132 3.62527H10.0499H10.0865H10.1231H10.1598H10.4497H10.7396H11.3194V0.447995H11.2924Z" fill="white"/>
</g>
</g>
<path id="Vector_5" d="M69.8588 25.11C69.8588 30.1174 65.9003 34.95 59.2673 34.95H44.4609V0H58.13C64.1401 0 67.9521 3.45687 67.9521 8.92337C67.9521 11.9561 66.7796 15.0603 63.3708 16.3296C67.5857 17.2462 69.8572 21.302 69.8572 25.1116L69.8588 25.11ZM49.2621 4.26708V14.5646H58.2415C61.5022 14.5646 63.1525 12.3787 63.1525 9.3809C63.1525 6.38314 61.3939 4.26708 58.0583 4.26708H49.2637H49.2621ZM65.0577 24.6874C65.0577 21.5483 62.9327 18.5855 58.5346 18.5855H49.2621V30.6464H58.2781C62.7495 30.6813 65.0577 27.9314 65.0577 24.6858V24.6874ZM77.8203 0H83.2411V30.6829H100.042V34.95H77.8203V0ZM127.101 25.9567H112.698L109.453 34.95H104.821L117.567 0H122.233L134.98 34.95H130.348L127.101 25.9567ZM125.647 21.9009L119.899 6.06541L114.152 21.9009H125.647ZM138.164 17.4575C138.164 7.83515 145.935 0 155.691 0C160.988 0 165.623 2.23362 168.69 5.7731L165.38 8.5564C163.079 5.90973 159.561 4.19241 155.726 4.19241C148.443 4.19241 142.728 10.172 142.728 17.4925C142.728 24.743 148.443 30.7925 155.726 30.7925C159.594 30.7925 163.079 29.0736 165.415 26.3936L168.725 29.1769C165.658 32.7513 161.058 34.95 155.726 34.95C145.935 34.9151 138.164 27.1148 138.164 17.4575ZM195.932 30.6829V34.95H175.095V0H195.445V4.26708H179.59V15.6226H193.423V19.9247H179.59V30.6813L195.932 30.6829Z" fill="white"/>
</g>
<defs>
<clipPath id="clip0_1650_448">
<rect width="195.932" height="34.95" fill="white"/>
</clipPath>
</defs>
</svg>
